<svg xmlns="http://www.w3.org/2000/svg" xmlns:xlink="http://www.w3.org/1999/xlink" xmlns:lucid="lucid" width="1350" height="2296.74"><g transform="translate(670 700)" lucid:page-tab-id="0_0"><path d="M-1000-1000h2000v3000h-2000z" fill="#fff"/><path d="M20-520c0 11.05-8.95 20-20 20s-20-8.95-20-20 8.95-20 20-20 20 8.95 20 20z" stroke="#666"/><path d="M0-499v2.62" stroke="#333" fill="none"/><path d="M-.02-499.5l.52-.02v.53h-1v-.56z" stroke="#333" stroke-width=".05" fill="#333"/><path d="M0-481.62l-4.63-14.26h9.27z" stroke="#333" fill="#333"/><path d="M-64-480c-8.84 0-16 7.16-16 16v48c0 8.84 7.16 16 16 16H64c8.84 0 16-7.16 16-16v-48c0-8.84-7.16-16-16-16z" stroke="#000" stroke-opacity="0" fill="#00b098"/><use xlink:href="#a" transform="matrix(1,0,0,1,-72,-472) translate(45.549382716049394 38.044444444444444)"/><path d="M-59.34-160H-378a12 12 0 0 0-12 12v58.13" stroke="#333" fill="none"/><path d="M-58.84-160l.03.5h-.55v-1h.54z" stroke="#333" stroke-width=".05" fill="#333"/><path d="M-390-75.1l-4.63-14.27h9.26z" stroke="#333" fill="#333"/><use xlink:href="#b" transform="matrix(1,0,0,1,-99.20146709878384,-188.26666666666665) translate(0 16.177777777777774)"/><path d="M-524-73.5c-8.84 0-16 7.18-16 16v48c0 8.85 7.16 16 16 16h268c8.84 0 16-7.15 16-16v-48c0-8.82-7.16-16-16-16z" stroke="#000" stroke-opacity="0" fill="#00c2a8"/><use xlink:href="#c" transform="matrix(1,0,0,1,-532,-65.48614449328943) translate(37.41049382716052 37.77777777777777)"/><use xlink:href="#d" transform="matrix(1,0,0,1,-532,-65.48614449328943) translate(108.08456790123458 37.77777777777777)"/><use xlink:href="#e" transform="matrix(1,0,0,1,-532,-65.48614449328943) translate(125.49197530864198 37.77777777777777)"/><use xlink:href="#f" transform="matrix(1,0,0,1,-532,-65.48614449328943) translate(169.5327160493827 37.77777777777777)"/><path d="M59.34-160H394a12 12 0 0 1 12 12v58.13" stroke="#333" fill="none"/><path d="M59.35-159.5h-.54l.04-.5-.03-.5h.55z" stroke="#333" stroke-width=".05" fill="#333"/><path d="M406-75.1l-4.63-14.27h9.27z" stroke="#333" fill="#333"/><use xlink:href="#g" transform="matrix(1,0,0,1,76.3912847428541,-188.26666666666665) translate(0 16.177777777777774)"/><path d="M188-73.5c-8.83 0-16 7.18-16 16v48c0 8.85 7.17 16 16 16h436c8.84 0 16-7.15 16-16v-48c0-8.82-7.16-16-16-16z" stroke="#000" stroke-opacity="0" fill="#00c2a8"/><use xlink:href="#h" transform="matrix(1,0,0,1,180.00210523803628,-65.48614449328943) translate(30.59876543209877 24.711111111111112)"/><use xlink:href="#i" transform="matrix(1,0,0,1,180.00210523803628,-65.48614449328943) translate(110.78395061728395 24.711111111111112)"/><use xlink:href="#j" transform="matrix(1,0,0,1,180.00210523803628,-65.48614449328943) translate(146.46296296296296 24.711111111111112)"/><use xlink:href="#k" transform="matrix(1,0,0,1,180.00210523803628,-65.48614449328943) translate(246.40123456790124 24.711111111111112)"/><use xlink:href="#l" transform="matrix(1,0,0,1,180.00210523803628,-65.48614449328943) translate(305.59876543209873 24.711111111111112)"/><use xlink:href="#m" transform="matrix(1,0,0,1,180.00210523803628,-65.48614449328943) translate(395.53703703703707 24.711111111111112)"/><use xlink:href="#n" transform="matrix(1,0,0,1,180.00210523803628,-65.48614449328943) translate(139.82716049382714 51.37777777777778)"/><use xlink:href="#o" transform="matrix(1,0,0,1,180.00210523803628,-65.48614449328943) translate(194.02469135802468 51.37777777777778)"/><path d="M-423.08-672a8 8 0 0 1 8-8h836.75a8 8 0 0 1 8 8v25.15a8 8 0 0 1-8 8h-836.75a8 8 0 0 1-8-8z" stroke="#000" stroke-opacity="0" stroke-width="2" fill="#fff" fill-opacity="0"/><use xlink:href="#p" transform="matrix(1,0,0,1,-419.08095013120385,-676) translate(322.56 25.782777777777778)"/><use xlink:href="#q" transform="matrix(1,0,0,1,-419.08095013120385,-676) translate(424.31679012345677 25.782777777777778)"/><path d="M-150.58-640.2H167M-150.55-640.2h-1.03M166.97-640.2H168" stroke="#a9afb8" stroke-width="2" fill="none"/><path d="M-423.08-630.85a8 8 0 0 1 8-8h837.7a8 8 0 0 1 8 8v2.85a8 8 0 0 1-8 8h-837.7a8 8 0 0 1-8-8z" stroke="#000" stroke-opacity="0" stroke-width="2" fill="#fff" fill-opacity="0"/><use xlink:href="#r" transform="matrix(1,0,0,1,-419.08095013120345,-634.8447760431011) translate(376.2783641975309 14.917037037037037)"/><use xlink:href="#s" transform="matrix(1,0,0,1,-419.08095013120345,-634.8447760431011) translate(431.3875205761317 14.917037037037037)"/><path d="M-39.1-194.85A10.6 10.6 0 0 1-30-200h60a10.6 10.6 0 0 1 9.1 5.15l17.8 29.7a10 10 0 0 1 0 10.3l-17.8 29.7A10.6 10.6 0 0 1 30-120h-60a10.6 10.6 0 0 1-9.1-5.14l-17.8-29.7a10 10 0 0 1 0-10.3z" stroke="#3a414a" fill="#fff"/><use xlink:href="#t" transform="matrix(1,0,0,1,-55,-195) translate(25.498827160493832 39.65277777777778)"/><path d="M-164-360c-8.84 0-16 7.16-16 16v48c0 8.84 7.16 16 16 16h328c8.84 0 16-7.16 16-16v-48c0-8.84-7.16-16-16-16z" stroke="#000" stroke-opacity="0" stroke-width="2" fill="#00b098"/><use xlink:href="#u" transform="matrix(1,0,0,1,-172,-352) translate(35.117283950617306 38.044444444444444)"/><use xlink:href="#v" transform="matrix(1,0,0,1,-172,-352) translate(59.80864197530866 38.044444444444444)"/><use xlink:href="#w" transform="matrix(1,0,0,1,-172,-352) translate(112.83333333333334 38.044444444444444)"/><use xlink:href="#x" transform="matrix(1,0,0,1,-172,-352) translate(131.35185185185185 38.044444444444444)"/><use xlink:href="#y" transform="matrix(1,0,0,1,-172,-352) translate(199.19135802469137 38.044444444444444)"/><use xlink:href="#w" transform="matrix(1,0,0,1,-172,-352) translate(227.52469135802468 38.044444444444444)"/><use xlink:href="#z" transform="matrix(1,0,0,1,-172,-352) translate(246.0432098765432 38.044444444444444)"/><path d="M0-399.5v23.12" stroke="#3a414a" fill="none"/><path d="M.5-399.5h-1v-.5h1z" stroke="#3a414a" stroke-width=".05" fill="#3a414a"/><path d="M0-361.62l-4.63-14.26h9.27z" stroke="#3a414a" fill="#3a414a"/><path d="M0-279.5V-216.88" stroke="#3a414a" fill="none"/><path d="M.5-279.5h-1v-.5h1z" stroke="#3a414a" stroke-width=".05" fill="#3a414a"/><path d="M0-202.12l-4.63-14.26h9.27z" stroke="#3a414a" fill="#3a414a"/><path d="M-634 53.5c-8.84 0-16 7.15-16 16v48c0 8.82 7.16 16 16 16h488c8.84 0 16-7.18 16-16v-48c0-8.85-7.16-16-16-16z" stroke="#000" stroke-opacity="0" fill="#00c2a8"/><use xlink:href="#A" transform="matrix(1,0,0,1,-642,61.48614449328943) translate(13.431481481481494 37.77777777777778)"/><use xlink:href="#B" transform="matrix(1,0,0,1,-642,61.48614449328943) translate(51.66975308641976 37.77777777777778)"/><use xlink:href="#C" transform="matrix(1,0,0,1,-642,61.48614449328943) translate(95.71049382716049 37.77777777777778)"/><use xlink:href="#D" transform="matrix(1,0,0,1,-642,61.48614449328943) translate(167.54506172839504 37.77777777777778)"/><use xlink:href="#E" transform="matrix(1,0,0,1,-642,61.48614449328943) translate(228.87716049382715 37.77777777777778)"/><use xlink:href="#F" transform="matrix(1,0,0,1,-642,61.48614449328943) translate(283.3623456790124 37.77777777777778)"/><use xlink:href="#G" transform="matrix(1,0,0,1,-642,61.48614449328943) translate(356.2993827160494 37.77777777777778)"/><use xlink:href="#H" transform="matrix(1,0,0,1,-642,61.48614449328943) translate(447.74629629629635 37.77777777777778)"/><path d="M188 53.72c-8.83 0-16 7.16-16 16v48c0 8.83 7.17 16 16 16h436c8.84 0 16-7.17 16-16v-48c0-8.84-7.16-16-16-16z" stroke="#000" stroke-opacity="0" fill="#00c2a8"/><use xlink:href="#I" transform="matrix(1,0,0,1,180.00210523803628,61.715361233223575) translate(113.83950617283953 38.044444444444444)"/><use xlink:href="#J" transform="matrix(1,0,0,1,180.00210523803628,61.715361233223575) translate(185.38271604938274 38.044444444444444)"/><use xlink:href="#K" transform="matrix(1,0,0,1,180.00210523803628,61.715361233223575) translate(270.44444444444446 38.044444444444444)"/><path d="M406 7V37.34" stroke="#3a414a" fill="none"/><path d="M406.5 7.03h-1V6.5h1z" stroke="#3a414a" stroke-width=".05" fill="#3a414a"/><path d="M406 52.1l-4.63-14.27h9.27z" stroke="#3a414a" fill="#3a414a"/><path d="M-390 7v30.1" stroke="#3a414a" fill="none"/><path d="M-389.5 7.03h-1V6.5h1z" stroke="#3a414a" stroke-width=".05" fill="#3a414a"/><path d="M-390 51.87l-4.63-14.27h9.26z" stroke="#3a414a" fill="#3a414a"/><path d="M-634 180.46c-8.84 0-16 7.16-16 16v48c0 8.83 7.16 16 16 16h488c8.84 0 16-7.16 16-16v-48c0-8.84-7.16-16-16-16z" stroke="#000" stroke-opacity="0" fill="#00c2a8"/><use xlink:href="#L" transform="matrix(1,0,0,1,-642,188.4584334798683) translate(16.10061728395065 37.77777777777777)"/><use xlink:href="#M" transform="matrix(1,0,0,1,-642,188.4584334798683) translate(97.16111111111114 37.77777777777777)"/><use xlink:href="#e" transform="matrix(1,0,0,1,-642,188.4584334798683) translate(134.1808641975309 37.77777777777777)"/><use xlink:href="#N" transform="matrix(1,0,0,1,-642,188.4584334798683) translate(178.2216049382716 37.77777777777777)"/><use xlink:href="#O" transform="matrix(1,0,0,1,-642,188.4584334798683) translate(261.0808641975309 37.77777777777777)"/><use xlink:href="#P" transform="matrix(1,0,0,1,-642,188.4584334798683) translate(327.0549382716049 37.77777777777777)"/><use xlink:href="#Q" transform="matrix(1,0,0,1,-642,188.4584334798683) translate(364.07469135802467 37.77777777777777)"/><path d="M-504 306.97c-8.84 0-16 7.17-16 16v48c0 8.84 7.16 16 16 16h228c8.84 0 16-7.16 16-16v-48c0-8.83-7.16-16-16-16z" stroke="#000" stroke-opacity="0" fill="#00c2a8"/><use xlink:href="#R" transform="matrix(1,0,0,1,-512,314.97228898657886) translate(17.439506172839526 37.77777777777778)"/><use xlink:href="#S" transform="matrix(1,0,0,1,-512,314.97228898657886) translate(66.81851851851854 37.77777777777778)"/><use xlink:href="#T" transform="matrix(1,0,0,1,-512,314.97228898657886) translate(100.35679012345682 37.77777777777778)"/><use xlink:href="#U" transform="matrix(1,0,0,1,-512,314.97228898657886) translate(164.12592592592594 37.77777777777778)"/><use xlink:href="#V" transform="matrix(1,0,0,1,-512,314.97228898657886) translate(189.54074074074074 37.77777777777778)"/><path d="M301.43 308.12c-8.84 0-16 7.16-16 16v48c0 8.83 7.16 16 16 16h209.14c8.84 0 16-7.17 16-16v-48c0-8.84-7.16-16-16-16z" stroke="#000" stroke-opacity="0" fill="#00c2a8"/><use xlink:href="#W" transform="matrix(1,0,0,1,293.42882888299016,316.1183726862496) translate(31.024691358024693 38.044444444444444)"/><use xlink:href="#X" transform="matrix(1,0,0,1,293.42882888299016,316.1183726862496) translate(123.55555555555556 38.044444444444444)"/><path d="M-390 260.96v29.63" stroke="#3a414a" fill="none"/><path d="M-389.5 260.97h-1v-.5h1z" stroke="#3a414a" stroke-width=".05" fill="#3a414a"/><path d="M-390 305.35l-4.63-14.26h9.26z" stroke="#3a414a" fill="#3a414a"/><path d="M-390 134v30.07" stroke="#3a414a" fill="none"/><path d="M-389.5 134h-1v-.5h1z" stroke="#3a414a" stroke-width=".05" fill="#3a414a"/><path d="M-390 178.84l-4.63-14.27h9.26z" stroke="#3a414a" fill="#3a414a"/><path d="M-634 433.5c-8.84 0-16 7.15-16 16v48c0 8.82 7.16 16 16 16h488c8.84 0 16-7.18 16-16v-48c0-8.85-7.16-16-16-16z" stroke="#000" stroke-opacity="0" fill="#00c2a8"/><use xlink:href="#Y" transform="matrix(1,0,0,1,-642,441.48614449328943) translate(84.62777777777784 37.77777777777777)"/><use xlink:href="#Z" transform="matrix(1,0,0,1,-642,441.48614449328943) translate(125.18703703703709 37.77777777777777)"/><use xlink:href="#aa" transform="matrix(1,0,0,1,-642,441.48614449328943) translate(181.93518518518522 37.77777777777777)"/><use xlink:href="#ab" transform="matrix(1,0,0,1,-642,441.48614449328943) translate(223.65493827160495 37.77777777777777)"/><use xlink:href="#ac" transform="matrix(1,0,0,1,-642,441.48614449328943) translate(294.38703703703703 37.77777777777777)"/><use xlink:href="#ad" transform="matrix(1,0,0,1,-642,441.48614449328943) translate(321.02037037037036 37.77777777777777)"/><path d="M-390 387.47v29.63" stroke="#3a414a" fill="none"/><path d="M-389.5 387.5h-1v-.53h1z" stroke="#3a414a" stroke-width=".05" fill="#3a414a"/><path d="M-390 431.87l-4.63-14.27h9.26z" stroke="#3a414a" fill="#3a414a"/><path d="M156 433.03c-8.84 0-16 7.16-16 16v48c0 8.83 7.16 16 16 16h488c8.84 0 16-7.17 16-16v-48c0-8.84-7.16-16-16-16z" stroke="#000" stroke-opacity="0" fill="#00c2a8"/><use xlink:href="#Y" transform="matrix(1,0,0,1,148,441.02771101342114) translate(84.62777777777784 37.77777777777777)"/><use xlink:href="#Z" transform="matrix(1,0,0,1,148,441.02771101342114) translate(125.18703703703709 37.77777777777777)"/><use xlink:href="#aa" transform="matrix(1,0,0,1,148,441.02771101342114) translate(181.93518518518522 37.77777777777777)"/><use xlink:href="#ab" transform="matrix(1,0,0,1,148,441.02771101342114) translate(223.65493827160495 37.77777777777777)"/><use xlink:href="#ac" transform="matrix(1,0,0,1,148,441.02771101342114) translate(294.38703703703703 37.77777777777777)"/><use xlink:href="#ad" transform="matrix(1,0,0,1,148,441.02771101342114) translate(321.02037037037036 37.77777777777777)"/><path d="M406 134.22v157.5" stroke="#3a414a" fill="none"/><path d="M406.5 134.23h-1v-.5h1z" stroke="#3a414a" stroke-width=".05" fill="#3a414a"/><path d="M406 306.5l-4.63-14.27h9.27z" stroke="#3a414a" fill="#3a414a"/><path d="M406 388.62v28.02" stroke="#3a414a" fill="none"/><path d="M406.5 388.63h-1v-.5h1z" stroke="#3a414a" stroke-width=".05" fill="#3a414a"/><path d="M406 431.4l-4.63-14.26h9.27z" stroke="#3a414a" fill="#3a414a"/><path d="M-429.7 580.2a10.6 10.6 0 0 1 9.07-5.13h60a10.6 10.6 0 0 1 9.1 5.14l17.82 29.72a10 10 0 0 1 0 10.3l-17.84 29.7a10.6 10.6 0 0 1-9.1 5.15h-60a10.6 10.6 0 0 1-9.07-5.15l-17.84-29.7a10 10 0 0 1 0-10.3z" stroke="#3a414a" fill="#fff"/><use xlink:href="#ae" transform="matrix(1,0,0,1,-445.62594429810986,580.0686683012202) translate(36.88771604938271 39.65277777777778)"/><path d="M-396.9 871.48a10.1 10.1 0 0 1 12.54 0l37.96 30.07a6.34 6.34 0 0 1 0 9.93l-37.96 30.07a10.1 10.1 0 0 1-12.54 0l-37.95-30.07a6.34 6.34 0 0 1 0-9.93z" stroke="#009985" stroke-width="4" fill="#fff"/><path d="M-331.3 615.07H-216a6 6 0 0 1 6 6V900.5a6 6 0 0 1-6 6h-109.6" stroke="#3a414a" fill="none"/><path d="M-331.27 615.57h-.54v-1h.53z" stroke="#3a414a" stroke-width=".05" fill="#3a414a"/><path d="M-340.37 906.5l14.26-4.62v9.27z" stroke="#3a414a" fill="#3a414a"/><path d="M-504.63 720.8c-8.83 0-16 7.16-16 16v48c0 8.83 7.17 16 16 16h228c8.84 0 16-7.17 16-16v-48c0-8.84-7.16-16-16-16z" stroke="#000" stroke-opacity="0" fill="#00c2a8"/><use xlink:href="#af" transform="matrix(1,0,0,1,-512.6259442981099,728.7912619039653) translate(24.580246913580236 38.22222222222222)"/><use xlink:href="#ag" transform="matrix(1,0,0,1,-512.6259442981099,728.7912619039653) translate(119.46419753086421 38.22222222222222)"/><use xlink:href="#ah" transform="matrix(1,0,0,1,-512.6259442981099,728.7912619039653) translate(160.42222222222225 38.22222222222222)"/><path d="M-390.63 801.3v49.6" stroke="#3a414a" fill="none"/><path d="M-390.13 801.3h-1v-.5h1z" stroke="#3a414a" stroke-width=".05" fill="#3a414a"/><path d="M-390.63 865.68l-4.63-14.27h9.27z" stroke="#3a414a" fill="#3a414a"/><path d="M-390.63 656.07v48.34" stroke="#3a414a" fill="none"/><path d="M-390.13 656.08h-1v-.5h1z" stroke="#3a414a" stroke-width=".05" fill="#3a414a"/><path d="M-390.63 719.17l-4.63-14.26h9.27z" stroke="#3a414a" fill="#3a414a"/><path d="M-494 1046.5c-8.84 0-16 7.18-16 16v48c0 8.85 7.16 16 16 16h228c8.84 0 16-7.15 16-16v-48c0-8.82-7.16-16-16-16z" stroke="#000" stroke-opacity="0" fill="#00c2a8"/><use xlink:href="#ai" transform="matrix(1,0,0,1,-502,1054.5138555067106) translate(47.081481481481504 38.22222222222222)"/><use xlink:href="#ag" transform="matrix(1,0,0,1,-502,1054.5138555067106) translate(106.01481481481483 38.22222222222222)"/><use xlink:href="#aj" transform="matrix(1,0,0,1,-502,1054.5138555067106) translate(146.97283950617285 38.22222222222222)"/><path d="M-390.63 946.23v83.9" stroke="#3a414a" fill="none"/><path d="M-390.63 945.73l.5-.03v.55h-1v-.55z" stroke="#3a414a" stroke-width=".05" fill="#3a414a"/><path d="M-390.63 1044.9l-4.63-14.27h9.27z" stroke="#3a414a" fill="#3a414a"/><path d="M-390.63 574.07v-29.73a.3.3 0 0 1 .32-.3.3.3 0 0 0 .3-.33v-13.83" stroke="#3a414a" fill="none"/><path d="M-390.13 574.57h-1v-.5h1z" stroke="#3a414a" stroke-width=".05" fill="#3a414a"/><path d="M-390 515.1l4.63 14.27h-9.26z" stroke="#3a414a" fill="#3a414a"/><path d="M360.9 580.2a10.6 10.6 0 0 1 9.1-5.13h60a10.6 10.6 0 0 1 9.1 5.14l17.8 29.72a10 10 0 0 1 0 10.3l-17.8 29.7a10.6 10.6 0 0 1-9.1 5.15h-60a10.6 10.6 0 0 1-9.1-5.15l-17.8-29.7a10 10 0 0 1 0-10.3z" stroke="#3a414a" fill="#fff"/><g><use xlink:href="#ae" transform="matrix(1,0,0,1,345,580.06866830122) translate(36.88771604938271 39.65277777777778)"/></g><path d="M393.73 871.48a10.1 10.1 0 0 1 12.54 0l37.96 30.07a6.34 6.34 0 0 1 0 9.93l-37.96 30.07a10.1 10.1 0 0 1-12.54 0l-37.96-30.07a6.34 6.34 0 0 1 0-9.93z" stroke="#009985" stroke-width="4" fill="#fff"/><path d="M459.34 615.07h115.3a6 6 0 0 1 6 6V900.5a6 6 0 0 1-6 6H465" stroke="#3a414a" fill="none"/><path d="M459.35 615.57h-.54l.04-.5-.03-.5h.55z" stroke="#3a414a" stroke-width=".05" fill="#3a414a"/><path d="M450.25 906.5l14.27-4.62v9.27z" stroke="#3a414a" fill="#3a414a"/><path d="M286 720.8c-8.84 0-16 7.16-16 16v48c0 8.83 7.16 16 16 16h228c8.84 0 16-7.17 16-16v-48c0-8.84-7.16-16-16-16z" stroke="#000" stroke-opacity="0" fill="#00c2a8"/><g><use xlink:href="#af" transform="matrix(1,0,0,1,278,728.7912619039652) translate(24.580246913580236 38.22222222222222)"/><use xlink:href="#ag" transform="matrix(1,0,0,1,278,728.7912619039652) translate(119.46419753086421 38.22222222222222)"/><use xlink:href="#ah" transform="matrix(1,0,0,1,278,728.7912619039652) translate(160.42222222222225 38.22222222222222)"/></g><path d="M400 801.3v49.6" stroke="#3a414a" fill="none"/><path d="M400.5 801.3h-1v-.5h1z" stroke="#3a414a" stroke-width=".05" fill="#3a414a"/><path d="M400 865.68l-4.63-14.27h9.26z" stroke="#3a414a" fill="#3a414a"/><path d="M400 656.07v48.34" stroke="#3a414a" fill="none"/><path d="M400.5 656.08h-1v-.5h1z" stroke="#3a414a" stroke-width=".05" fill="#3a414a"/><path d="M400 719.17l-4.63-14.26h9.26z" stroke="#3a414a" fill="#3a414a"/><path d="M296.63 1046.5c-8.84 0-16 7.18-16 16v48c0 8.85 7.16 16 16 16h228c8.83 0 16-7.15 16-16v-48c0-8.82-7.17-16-16-16z" stroke="#000" stroke-opacity="0" fill="#00c2a8"/><g><use xlink:href="#ak" transform="matrix(1,0,0,1,288.62594429810986,1054.5138555067106) translate(49.6493827160494 38.22222222222222)"/><use xlink:href="#ag" transform="matrix(1,0,0,1,288.62594429810986,1054.5138555067106) translate(103.44691358024693 38.22222222222222)"/><use xlink:href="#aj" transform="matrix(1,0,0,1,288.62594429810986,1054.5138555067106) translate(144.40493827160495 38.22222222222222)"/></g><path d="M400 946.23v83.9" stroke="#3a414a" fill="none"/><path d="M400 945.73l.5-.03v.55h-1v-.55z" stroke="#3a414a" stroke-width=".05" fill="#3a414a"/><path d="M400 1044.9l-4.63-14.27h9.26z" stroke="#3a414a" fill="#3a414a"/><path d="M400 574.07V529.4" stroke="#3a414a" fill="none"/><path d="M400.5 574.57h-1v-.5h1z" stroke="#3a414a" stroke-width=".05" fill="#3a414a"/><path d="M400 514.65l4.63 14.26h-9.26z" stroke="#3a414a" fill="#3a414a"/><path d="M430.63 1400c0 11.05-8.96 20-20 20-11.05 0-20-8.95-20-20s8.95-20 20-20c11.04 0 20 8.95 20 20z" stroke="#3a414a" fill="#fff"/><path d="M422.63 1400c0 6.63-5.38 12-12 12-6.63 0-12-5.37-12-12s5.37-12 12-12c6.62 0 12 5.37 12 12z" stroke="#3a414a"/><path d="M296.63 1203.26c-8.84 0-16 7.16-16 16v48c0 8.83 7.16 16 16 16h228c8.83 0 16-7.17 16-16v-48c0-8.84-7.17-16-16-16z" stroke="#000" stroke-opacity="0" fill="#00c2a8"/><g><use xlink:href="#al" transform="matrix(1,0,0,1,288.62594429810986,1211.2569277533553) translate(23.296296296296287 38.22222222222222)"/><use xlink:href="#am" transform="matrix(1,0,0,1,288.62594429810986,1211.2569277533553) translate(114.32839506172839 38.22222222222222)"/></g><path d="M410.63 1127v59.87" stroke="#3a414a" fill="none"/><path d="M411.13 1127.03h-1v-.52h1z" stroke="#3a414a" stroke-width=".05" fill="#3a414a"/><path d="M410.63 1201.64l-4.64-14.27h9.26z" stroke="#3a414a" fill="#3a414a"/><path d="M410.63 1283.76v79.36" stroke="#3a414a" fill="none"/><path d="M411.13 1283.77h-1v-.5h1z" stroke="#3a414a" stroke-width=".05" fill="#3a414a"/><path d="M410.63 1377.88l-4.64-14.26h9.26z" stroke="#3a414a" fill="#3a414a"/><path d="M-494 1203.26c-8.84 0-16 7.16-16 16v48c0 8.83 7.16 16 16 16h228c8.84 0 16-7.17 16-16v-48c0-8.84-7.16-16-16-16z" stroke="#000" stroke-opacity="0" fill="#00c2a8"/><g><use xlink:href="#an" transform="matrix(1,0,0,1,-502,1211.2569277533553) translate(51.575308641975326 38.22222222222222)"/><use xlink:href="#ag" transform="matrix(1,0,0,1,-502,1211.2569277533553) translate(101.520987654321 38.22222222222222)"/><use xlink:href="#aj" transform="matrix(1,0,0,1,-502,1211.2569277533553) translate(142.47901234567902 38.22222222222222)"/></g><path d="M-360 1556.74c0 11.05-8.95 20-20 20s-20-8.95-20-20c0-11.04 8.95-20 20-20s20 8.96 20 20z" stroke="#3a414a" fill="#fff"/><path d="M-368 1556.74c0 6.63-5.37 12-12 12s-12-5.37-12-12c0-6.62 5.37-12 12-12s12 5.38 12 12z" stroke="#3a414a"/><path d="M-494 1360c-8.84 0-16 7.16-16 16v48c0 8.84 7.16 16 16 16h228c8.84 0 16-7.16 16-16v-48c0-8.84-7.16-16-16-16z" stroke="#000" stroke-opacity="0" fill="#00c2a8"/><g><use xlink:href="#al" transform="matrix(1,0,0,1,-502,1368) translate(23.296296296296287 38.22222222222222)"/><use xlink:href="#am" transform="matrix(1,0,0,1,-502,1368) translate(114.32839506172839 38.22222222222222)"/></g><path d="M-380 1283.76v59.86" stroke="#3a414a" fill="none"/><path d="M-379.5 1283.77h-1v-.5h1z" stroke="#3a414a" stroke-width=".05" fill="#3a414a"/><path d="M-380 1358.38l-4.63-14.26h9.26z" stroke="#3a414a" fill="#3a414a"/><path d="M-380 1440.5v79.36" stroke="#3a414a" fill="none"/><path d="M-379.5 1440.5h-1v-.5h1z" stroke="#3a414a" stroke-width=".05" fill="#3a414a"/><path d="M-380 1534.63l-4.63-14.27h9.26z" stroke="#3a414a" fill="#3a414a"/><path d="M-380 1127v59.87" stroke="#3a414a" fill="none"/><path d="M-379.5 1127.03h-1v-.52h1z" stroke="#3a414a" stroke-width=".05" fill="#3a414a"/><path d="M-380 1201.64l-4.63-14.27h9.26z" stroke="#3a414a" fill="#3a414a"/><defs><path fill="#fff" d="M6 0l51-261h49L55 0H6" id="ao"/><path fill="#fff" d="M124-194c51 0 84 22 84 74C207-44 167 4 94 4 43 4 11-23 11-74c0-74 41-120 113-120zM99-30c46 0 58-42 58-86 0-27-11-44-37-44-44 0-55 40-57 84-1 27 10 45 36 46" id="ap"/><path fill="#fff" d="M45-171c29-32 103-29 114 14 2-11 5-23 8-33h47L176-2c-3 70-92 96-155 64C9 56 1 42-1 25l50-5c2 28 48 27 63 11 13-13 20-45 21-66-13 20-30 35-62 36-87 3-60-134-26-172zM94-35c41-3 55-43 55-86 0-24-12-39-35-39-43 0-51 48-51 90 0 22 9 37 31 35" id="aq"/><path fill="#fff" d="M50-224l7-37h49l-7 37H50zM6 0l37-190h49L55 0H6" id="ar"/><path fill="#fff" d="M151-194c95 0 34 128 28 194h-49l25-134c0-29-45-25-59-9C67-111 69-48 56 0H6l36-190h47l-4 32c15-20 33-36 66-36" id="as"/><g id="a"><use transform="matrix(0.061728395061728385,0,0,0.061728395061728385,0,0)" xlink:href="#ao"/><use transform="matrix(0.061728395061728385,0,0,0.061728395061728385,6.1728395061728385,0)" xlink:href="#ap"/><use transform="matrix(0.061728395061728385,0,0,0.061728395061728385,19.691358024691354,0)" xlink:href="#aq"/><use transform="matrix(0.061728395061728385,0,0,0.061728395061728385,33.20987654320987,0)" xlink:href="#ar"/><use transform="matrix(0.061728395061728385,0,0,0.061728395061728385,39.38271604938271,0)" xlink:href="#as"/></g><path d="M127-220V0H93v-220H8v-28h204v28h-85" id="at"/><path d="M114-163C36-179 61-72 57 0H25l-1-190h30c1 12-1 29 2 39 6-27 23-49 58-41v29" id="au"/><path d="M84 4C-5 8 30-112 23-190h32v120c0 31 7 50 39 49 72-2 45-101 50-169h31l1 190h-30c-1-10 1-25-2-33-11 22-28 36-60 37" id="av"/><path d="M100-194c63 0 86 42 84 106H49c0 40 14 67 53 68 26 1 43-12 49-29l28 8c-11 28-37 45-77 45C44 4 14-33 15-96c1-61 26-98 85-98zm52 81c6-60-76-77-97-28-3 7-6 17-6 28h103" id="aw"/><g id="b"><use transform="matrix(0.056172839506172814,0,0,0.056172839506172814,0,0)" xlink:href="#at"/><use transform="matrix(0.056172839506172814,0,0,0.056172839506172814,11.5716049382716,0)" xlink:href="#au"/><use transform="matrix(0.056172839506172814,0,0,0.056172839506172814,18.256172839506164,0)" xlink:href="#av"/><use transform="matrix(0.056172839506172814,0,0,0.056172839506172814,29.490740740740726,0)" xlink:href="#aw"/></g><path fill="#fff" d="M161-211c-63 0-91 46-91 110 0 39 17 65 58 64 38-1 60-20 74-45l40 20C220-23 184 0 125 4 9 13-10-144 57-208c33-50 166-62 196-1 4 8 9 18 11 27l-48 12c-6-24-25-41-55-41" id="ax"/><path fill="#fff" d="M84-151c13-25 34-51 72-40l-8 41C67-170 71-64 56 0H6l36-190h47" id="ay"/><path fill="#fff" d="M114-194c63-2 87 48 72 110H63c-3 28 1 55 31 54 21-1 32-13 37-29l44 13C160-14 137 4 91 4 41 4 11-22 11-73c0-71 33-119 103-121zm30 77c14-47-50-61-67-22-3 6-6 13-8 22h75" id="az"/><path fill="#fff" d="M166-52c-4 17 5 29 24 23l-3 27c-30 11-74 1-67-34C105-15 91 4 56 4 23 4 3-15 2-49c0-64 63-67 128-67 10-22 3-53-29-45-13 3-22 10-25 24l-46-5c5-64 156-77 153 0-1 33-11 60-17 90zM97-88c-44-9-64 57-19 57 31 0 42-28 47-57H97" id="aA"/><path fill="#fff" d="M72-63c-8 23 5 39 32 30L98-1C54 14 12-6 23-64l18-93H15l7-33h28l24-45h31l-8 45h35l-6 33H90" id="aB"/><g id="c"><use transform="matrix(0.05802469135802468,0,0,0.05802469135802468,0,0)" xlink:href="#ax"/><use transform="matrix(0.05802469135802468,0,0,0.05802469135802468,15.028395061728393,0)" xlink:href="#ay"/><use transform="matrix(0.05802469135802468,0,0,0.05802469135802468,23.15185185185185,0)" xlink:href="#az"/><use transform="matrix(0.05802469135802468,0,0,0.05802469135802468,34.75679012345678,0)" xlink:href="#aA"/><use transform="matrix(0.05802469135802468,0,0,0.05802469135802468,46.36172839506172,0)" xlink:href="#aB"/><use transform="matrix(0.05802469135802468,0,0,0.05802469135802468,53.26666666666665,0)" xlink:href="#az"/></g><use transform="matrix(0.05802469135802468,0,0,0.05802469135802468,0,0)" xlink:href="#aA" id="d"/><path fill="#fff" d="M132-28C118-9 101 4 69 4 30 4 10-23 10-62c0-70 24-129 92-132 31-1 47 14 56 35l19-102h49L179 0h-49zM62-69c0 22 7 39 29 39 45-2 54-45 57-90 2-27-10-40-33-40-44 0-53 48-53 91" id="aC"/><g id="e"><use transform="matrix(0.05802469135802468,0,0,0.05802469135802468,0,0)" xlink:href="#ay"/><use transform="matrix(0.05802469135802468,0,0,0.05802469135802468,8.123456790123456,0)" xlink:href="#ar"/><use transform="matrix(0.05802469135802468,0,0,0.05802469135802468,13.925925925925924,0)" xlink:href="#aC"/><use transform="matrix(0.05802469135802468,0,0,0.05802469135802468,26.63333333333333,0)" xlink:href="#az"/></g><path fill="#fff" d="M93-157L62 0H13l31-157H16l6-33h28c2-54 40-81 100-68l-6 32c-29-8-44 9-45 36h38l-7 33H93" id="aD"/><g id="f"><use transform="matrix(0.05802469135802468,0,0,0.05802469135802468,0,0)" xlink:href="#ap"/><use transform="matrix(0.05802469135802468,0,0,0.05802469135802468,12.707407407407405,0)" xlink:href="#aD"/><use transform="matrix(0.05802469135802468,0,0,0.05802469135802468,19.20617283950617,0)" xlink:href="#aD"/><use transform="matrix(0.05802469135802468,0,0,0.05802469135802468,26.111111111111107,0)" xlink:href="#az"/><use transform="matrix(0.05802469135802468,0,0,0.05802469135802468,37.716049382716044,0)" xlink:href="#ay"/><use transform="matrix(0.05802469135802468,0,0,0.05802469135802468,45.8395061728395,0)" xlink:href="#ar"/><use transform="matrix(0.05802469135802468,0,0,0.05802469135802468,51.64197530864197,0)" xlink:href="#as"/><use transform="matrix(0.05802469135802468,0,0,0.05802469135802468,64.34938271604938,0)" xlink:href="#aq"/></g><path d="M233-177c-1 41-23 64-60 70L243 0h-38l-65-103H63V0H30v-248c88 3 205-21 203 71zM63-129c60-2 137 13 137-47 0-61-80-42-137-45v92" id="aE"/><path d="M24-231v-30h32v30H24zM24 0v-190h32V0H24" id="aF"/><path d="M85-194c31 0 48 13 60 33l-1-100h32l1 261h-30c-2-10 0-23-3-31C134-8 116 4 85 4 32 4 16-35 15-94c0-66 23-100 70-100zm9 24c-40 0-46 34-46 75 0 40 6 74 45 74 42 0 51-32 51-76 0-42-9-74-50-73" id="aG"/><g id="g"><use transform="matrix(0.056172839506172814,0,0,0.056172839506172814,0,0)" xlink:href="#aE"/><use transform="matrix(0.056172839506172814,0,0,0.056172839506172814,14.548765432098758,0)" xlink:href="#aF"/><use transform="matrix(0.056172839506172814,0,0,0.056172839506172814,18.98641975308641,0)" xlink:href="#aG"/><use transform="matrix(0.056172839506172814,0,0,0.056172839506172814,30.220987654320975,0)" xlink:href="#aw"/><use transform="matrix(0.056172839506172814,0,0,0.056172839506172814,41.455555555555534,0)" xlink:href="#au"/></g><path fill="#fff" d="M178-136c88 48 22 151-73 140C49-3 12-15 4-64l51-9c1 50 111 53 115 3-16-63-132-20-133-112 0-93 190-91 199-10l-50 12c-4-41-93-50-97-4 7 38 59 32 89 48" id="aH"/><path fill="#fff" d="M67-101c-8 29-7 73 27 71 23-2 32-16 39-37l48 9C170-19 141 4 91 4 36 4 7-28 12-86c6-75 61-124 140-103 26 7 40 29 43 59l-50 4c-1-20-9-34-29-34-35 0-41 29-49 59" id="aI"/><path fill="#fff" d="M150-105c8-23 8-54-22-51-68 7-54 98-72 156H6l50-261h50L85-158c15-20 33-36 66-36 95 0 34 128 28 194h-49" id="aJ"/><g id="h"><use transform="matrix(0.06172839506172839,0,0,0.06172839506172839,0,0)" xlink:href="#aH"/><use transform="matrix(0.06172839506172839,0,0,0.06172839506172839,14.814814814814813,0)" xlink:href="#az"/><use transform="matrix(0.06172839506172839,0,0,0.06172839506172839,27.160493827160494,0)" xlink:href="#aA"/><use transform="matrix(0.06172839506172839,0,0,0.06172839506172839,39.50617283950617,0)" xlink:href="#ay"/><use transform="matrix(0.06172839506172839,0,0,0.06172839506172839,48.148148148148145,0)" xlink:href="#aI"/><use transform="matrix(0.06172839506172839,0,0,0.06172839506172839,60.49382716049382,0)" xlink:href="#aJ"/></g><g id="i"><use transform="matrix(0.06172839506172839,0,0,0.06172839506172839,0,0)" xlink:href="#aD"/><use transform="matrix(0.06172839506172839,0,0,0.06172839506172839,7.345679012345679,0)" xlink:href="#ap"/><use transform="matrix(0.06172839506172839,0,0,0.06172839506172839,20.864197530864196,0)" xlink:href="#ay"/></g><path fill="#fff" d="M109 0H50L19-190h51L86-37l77-153h54" id="aK"/><path fill="#fff" d="M87-160c15-17 32-34 63-34 99 1 59 172-1 192-36 12-78 0-87-29L54 0H6l52-261h49zm71 38c0-24-5-37-29-37-46 0-55 46-57 89-1 25 12 40 35 40 44 0 51-50 51-92" id="aL"/><g id="j"><use transform="matrix(0.06172839506172839,0,0,0.06172839506172839,0,0)" xlink:href="#aA"/><use transform="matrix(0.06172839506172839,0,0,0.06172839506172839,12.345679012345679,0)" xlink:href="#aK"/><use transform="matrix(0.06172839506172839,0,0,0.06172839506172839,24.691358024691358,0)" xlink:href="#aA"/><use transform="matrix(0.06172839506172839,0,0,0.06172839506172839,37.03703703703704,0)" xlink:href="#ar"/><use transform="matrix(0.06172839506172839,0,0,0.06172839506172839,43.20987654320988,0)" xlink:href="#ao"/><use transform="matrix(0.06172839506172839,0,0,0.06172839506172839,49.38271604938272,0)" xlink:href="#aA"/><use transform="matrix(0.06172839506172839,0,0,0.06172839506172839,61.7283950617284,0)" xlink:href="#aL"/><use transform="matrix(0.06172839506172839,0,0,0.06172839506172839,75.24691358024691,0)" xlink:href="#ao"/><use transform="matrix(0.06172839506172839,0,0,0.06172839506172839,81.41975308641975,0)" xlink:href="#az"/></g><path fill="#fff" d="M144-137c-1-29-70-35-71-2 16 41 103 10 103 80C176 9 79 16 32-9 18-17 9-31 4-48l44-6c3 32 80 36 82 1-15-42-103-11-103-82 0-77 157-79 161-8" id="aM"/><g id="k"><use transform="matrix(0.06172839506172839,0,0,0.06172839506172839,0,0)" xlink:href="#ay"/><use transform="matrix(0.06172839506172839,0,0,0.06172839506172839,8.641975308641975,0)" xlink:href="#ar"/><use transform="matrix(0.06172839506172839,0,0,0.06172839506172839,14.814814814814813,0)" xlink:href="#aC"/><use transform="matrix(0.06172839506172839,0,0,0.06172839506172839,28.33333333333333,0)" xlink:href="#az"/><use transform="matrix(0.06172839506172839,0,0,0.06172839506172839,40.679012345679006,0)" xlink:href="#aM"/></g><path fill="#fff" d="M156-122c2-23-7-37-28-37-47 0-58 44-58 89 0 24 12 40 36 40 43 0 47-49 50-92zM-8 75l50-265h48c0 10-3 24-3 30 22-50 127-45 121 29-6 73-21 135-92 135-29 0-46-14-55-35L41 75H-8" id="aN"/><g id="l"><use transform="matrix(0.06172839506172839,0,0,0.06172839506172839,0,0)" xlink:href="#aN"/><use transform="matrix(0.06172839506172839,0,0,0.06172839506172839,13.518518518518517,0)" xlink:href="#aA"/><use transform="matrix(0.06172839506172839,0,0,0.06172839506172839,25.864197530864196,0)" xlink:href="#aM"/><use transform="matrix(0.06172839506172839,0,0,0.06172839506172839,38.20987654320987,0)" xlink:href="#aM"/><use transform="matrix(0.06172839506172839,0,0,0.06172839506172839,50.55555555555555,0)" xlink:href="#ar"/><use transform="matrix(0.06172839506172839,0,0,0.06172839506172839,56.72839506172839,0)" xlink:href="#as"/><use transform="matrix(0.06172839506172839,0,0,0.06172839506172839,70.24691358024691,0)" xlink:href="#aq"/></g><path fill="#fff" d="M100 10C77 47 50 87-15 72l7-35c37 9 51-18 65-41L20-190h51L89-44l73-146h53" id="aO"/><g id="m"><use transform="matrix(0.06172839506172839,0,0,0.06172839506172839,0,0)" xlink:href="#aL"/><use transform="matrix(0.06172839506172839,0,0,0.06172839506172839,13.518518518518517,0)" xlink:href="#aO"/></g><path fill="#fff" d="M69 3c-96 0-34-126-28-193h49L65-57c6 42 62 18 71-6 14-38 17-86 28-127h50L178 0h-47c0-11 4-26 3-33-14 20-30 37-65 36" id="aP"/><g id="n"><use transform="matrix(0.06172839506172839,0,0,0.06172839506172839,0,0)" xlink:href="#aO"/><use transform="matrix(0.06172839506172839,0,0,0.06172839506172839,12.345679012345679,0)" xlink:href="#ap"/><use transform="matrix(0.06172839506172839,0,0,0.06172839506172839,25.864197530864196,0)" xlink:href="#aP"/><use transform="matrix(0.06172839506172839,0,0,0.06172839506172839,39.382716049382715,0)" xlink:href="#ay"/></g><g id="o"><use transform="matrix(0.06172839506172839,0,0,0.06172839506172839,0,0)" xlink:href="#aC"/><use transform="matrix(0.06172839506172839,0,0,0.06172839506172839,13.518518518518517,0)" xlink:href="#az"/><use transform="matrix(0.06172839506172839,0,0,0.06172839506172839,25.864197530864196,0)" xlink:href="#aM"/><use transform="matrix(0.06172839506172839,0,0,0.06172839506172839,38.20987654320987,0)" xlink:href="#aB"/><use transform="matrix(0.06172839506172839,0,0,0.06172839506172839,45.55555555555555,0)" xlink:href="#ar"/><use transform="matrix(0.06172839506172839,0,0,0.06172839506172839,51.72839506172839,0)" xlink:href="#as"/><use transform="matrix(0.06172839506172839,0,0,0.06172839506172839,65.24691358024691,0)" xlink:href="#aA"/><use transform="matrix(0.06172839506172839,0,0,0.06172839506172839,77.5925925925926,0)" xlink:href="#aB"/><use transform="matrix(0.06172839506172839,0,0,0.06172839506172839,84.93827160493828,0)" xlink:href="#ar"/><use transform="matrix(0.06172839506172839,0,0,0.06172839506172839,91.11111111111111,0)" xlink:href="#ap"/><use transform="matrix(0.06172839506172839,0,0,0.06172839506172839,104.62962962962963,0)" xlink:href="#as"/></g><path fill="#a9afb8" d="M199 0l-22-63H83L61 0H9l90-248h61L250 0h-51zm-33-102l-36-108c-10 38-24 72-36 108h72" id="aQ"/><path fill="#a9afb8" d="M190-63c-7 42-38 67-86 67-59 0-84-38-90-98-12-110 154-137 174-36l-49 2c-2-19-15-32-35-32-30 0-35 28-38 64-6 74 65 87 74 30" id="aR"/><path fill="#a9afb8" d="M115-3C79 11 28 4 28-45v-112H4v-33h27l15-45h31v45h36v33H77v99c-1 23 16 31 38 25v30" id="aS"/><path fill="#a9afb8" d="M25-224v-37h50v37H25zM25 0v-190h50V0H25" id="aT"/><path fill="#a9afb8" d="M128 0H69L1-190h53L99-40l48-150h52" id="aU"/><path fill="#a9afb8" d="M123 10C108 53 80 86 19 72V37c35 8 53-11 59-39L3-190h52l48 148c12-52 28-100 44-148h51" id="aV"/><g id="p"><use transform="matrix(0.0728395061728395,0,0,0.0728395061728395,0,0)" xlink:href="#aQ"/><use transform="matrix(0.0728395061728395,0,0,0.0728395061728395,18.86543209876543,0)" xlink:href="#aR"/><use transform="matrix(0.0728395061728395,0,0,0.0728395061728395,33.43333333333333,0)" xlink:href="#aS"/><use transform="matrix(0.0728395061728395,0,0,0.0728395061728395,42.10123456790124,0)" xlink:href="#aT"/><use transform="matrix(0.0728395061728395,0,0,0.0728395061728395,49.38518518518518,0)" xlink:href="#aU"/><use transform="matrix(0.0728395061728395,0,0,0.0728395061728395,63.95308641975308,0)" xlink:href="#aT"/><use transform="matrix(0.0728395061728395,0,0,0.0728395061728395,71.23703703703703,0)" xlink:href="#aS"/><use transform="matrix(0.0728395061728395,0,0,0.0728395061728395,79.90493827160493,0)" xlink:href="#aV"/></g><path fill="#a9afb8" d="M24-248c120-7 223 5 221 122C244-46 201 0 124 0H24v-248zM76-40c74 7 117-18 117-86 0-67-45-88-117-82v168" id="aW"/><path fill="#a9afb8" d="M133-34C117-15 103 5 69 4 32 3 11-16 11-54c-1-60 55-63 116-61 1-26-3-47-28-47-18 1-26 9-28 27l-52-2c7-38 36-58 82-57s74 22 75 68l1 82c-1 14 12 18 25 15v27c-30 8-71 5-69-32zm-48 3c29 0 43-24 42-57-32 0-66-3-65 30 0 17 8 27 23 27" id="aX"/><path fill="#a9afb8" d="M195-6C206 82 75 100 31 46c-4-6-6-13-8-21l49-6c3 16 16 24 34 25 40 0 42-37 40-79-11 22-30 35-61 35-53 0-70-43-70-97 0-56 18-96 73-97 30 0 46 14 59 34l2-30h47zm-90-29c32 0 41-27 41-63 0-35-9-62-40-62-32 0-39 29-40 63 0 36 9 62 39 62" id="aY"/><path fill="#a9afb8" d="M135-150c-39-12-60 13-60 57V0H25l-1-190h47c2 13-1 29 3 40 6-28 27-53 61-41v41" id="aZ"/><path fill="#a9afb8" d="M220-157c-53 9-28 100-34 157h-49v-107c1-27-5-49-29-50C55-147 81-57 75 0H25l-1-190h47c2 12-1 28 3 38 10-53 101-56 108 0 13-22 24-43 59-42 82 1 51 116 57 194h-49v-107c-1-25-5-48-29-50" id="ba"/><g id="q"><use transform="matrix(0.0728395061728395,0,0,0.0728395061728395,0,0)" xlink:href="#aW"/><use transform="matrix(0.0728395061728395,0,0,0.0728395061728395,18.86543209876543,0)" xlink:href="#aT"/><use transform="matrix(0.0728395061728395,0,0,0.0728395061728395,26.14938271604938,0)" xlink:href="#aX"/><use transform="matrix(0.0728395061728395,0,0,0.0728395061728395,40.717283950617286,0)" xlink:href="#aY"/><use transform="matrix(0.0728395061728395,0,0,0.0728395061728395,56.66913580246913,0)" xlink:href="#aZ"/><use transform="matrix(0.0728395061728395,0,0,0.0728395061728395,66.86666666666666,0)" xlink:href="#aX"/><use transform="matrix(0.0728395061728395,0,0,0.0728395061728395,81.43456790123457,0)" xlink:href="#ba"/></g><path fill="#a9afb8" d="M33 0v-248h34V0H33" id="bb"/><path fill="#a9afb8" d="M115-194c53 0 69 39 70 98 0 66-23 100-70 100C84 3 66-7 56-30L54 0H23l1-261h32v101c10-23 28-34 59-34zm-8 174c40 0 45-34 45-75 0-40-5-75-45-74-42 0-51 32-51 76 0 43 10 73 51 73" id="bc"/><path fill="#a9afb8" d="M114-163C36-179 61-72 57 0H25l-1-190h30c1 12-1 29 2 39 6-27 23-49 58-41v29" id="bd"/><path fill="#a9afb8" d="M141-36C126-15 110 5 73 4 37 3 15-17 15-53c-1-64 63-63 125-63 3-35-9-54-41-54-24 1-41 7-42 31l-33-3c5-37 33-52 76-52 45 0 72 20 72 64v82c-1 20 7 32 28 27v20c-31 9-61-2-59-35zM48-53c0 20 12 33 32 33 41-3 63-29 60-74-43 2-92-5-92 41" id="be"/><path fill="#a9afb8" d="M106-169C34-169 62-67 57 0H25v-261h32l-1 103c12-21 28-36 61-36 89 0 53 116 60 194h-32v-121c2-32-8-49-39-48" id="bf"/><path fill="#a9afb8" d="M24-231v-30h32v30H24zM24 0v-190h32V0H24" id="bg"/><path fill="#a9afb8" d="M210-169c-67 3-38 105-44 169h-31v-121c0-29-5-50-35-48C34-165 62-65 56 0H25l-1-190h30c1 10-1 24 2 32 10-44 99-50 107 0 11-21 27-35 58-36 85-2 47 119 55 194h-31v-121c0-29-5-49-35-48" id="bh"/><g id="r"><use transform="matrix(0.04248971193415638,0,0,0.04248971193415638,0,0)" xlink:href="#bb"/><use transform="matrix(0.04248971193415638,0,0,0.04248971193415638,4.248971193415637,0)" xlink:href="#bc"/><use transform="matrix(0.04248971193415638,0,0,0.04248971193415638,12.746913580246911,0)" xlink:href="#bd"/><use transform="matrix(0.04248971193415638,0,0,0.04248971193415638,17.80318930041152,0)" xlink:href="#be"/><use transform="matrix(0.04248971193415638,0,0,0.04248971193415638,26.301131687242794,0)" xlink:href="#bf"/><use transform="matrix(0.04248971193415638,0,0,0.04248971193415638,34.79907407407407,0)" xlink:href="#bg"/><use transform="matrix(0.04248971193415638,0,0,0.04248971193415638,38.15576131687242,0)" xlink:href="#bh"/></g><path fill="#a9afb8" d="M143 4C61 4 22-44 18-125c-5-107 100-154 193-111 17 8 29 25 37 43l-32 9c-13-25-37-40-76-40-61 0-88 39-88 99 0 61 29 100 91 101 35 0 62-11 79-27v-45h-74v-28h105v86C228-13 192 4 143 4" id="bi"/><path fill="#a9afb8" d="M24 0v-261h32V0H24" id="bj"/><g id="s"><use transform="matrix(0.04248971193415638,0,0,0.04248971193415638,0,0)" xlink:href="#bi"/><use transform="matrix(0.04248971193415638,0,0,0.04248971193415638,11.897119341563785,0)" xlink:href="#be"/><use transform="matrix(0.04248971193415638,0,0,0.04248971193415638,20.39506172839506,0)" xlink:href="#bh"/><use transform="matrix(0.04248971193415638,0,0,0.04248971193415638,33.099485596707815,0)" xlink:href="#be"/><use transform="matrix(0.04248971193415638,0,0,0.04248971193415638,41.59742798353909,0)" xlink:href="#bj"/></g><path fill="#3a414a" d="M30-248c118-7 216 8 213 122C240-48 200 0 122 0H30v-248zM63-27c89 8 146-16 146-99s-60-101-146-95v194" id="bk"/><path fill="#3a414a" d="M114-163C36-179 61-72 57 0H25l-1-190h30c1 12-1 29 2 39 6-27 23-49 58-41v29" id="bl"/><path fill="#3a414a" d="M24-231v-30h32v30H24zM24 0v-190h32V0H24" id="bm"/><path fill="#3a414a" d="M108 0H70L1-190h34L89-25l56-165h34" id="bn"/><path fill="#3a414a" d="M100-194c63 0 86 42 84 106H49c0 40 14 67 53 68 26 1 43-12 49-29l28 8c-11 28-37 45-77 45C44 4 14-33 15-96c1-61 26-98 85-98zm52 81c6-60-76-77-97-28-3 7-6 17-6 28h103" id="bo"/><g id="t"><use transform="matrix(0.06172839506172839,0,0,0.06172839506172839,0,0)" xlink:href="#bk"/><use transform="matrix(0.06172839506172839,0,0,0.06172839506172839,15.987654320987653,0)" xlink:href="#bl"/><use transform="matrix(0.06172839506172839,0,0,0.06172839506172839,23.333333333333332,0)" xlink:href="#bm"/><use transform="matrix(0.06172839506172839,0,0,0.06172839506172839,28.209876543209873,0)" xlink:href="#bn"/><use transform="matrix(0.06172839506172839,0,0,0.06172839506172839,39.32098765432099,0)" xlink:href="#bo"/><use transform="matrix(0.06172839506172839,0,0,0.06172839506172839,51.666666666666664,0)" xlink:href="#bl"/></g><path fill="#fff" d="M6 0l48-248h52L58 0H6" id="bp"/><g id="u"><use transform="matrix(0.061728395061728385,0,0,0.061728395061728385,0,0)" xlink:href="#bp"/><use transform="matrix(0.061728395061728385,0,0,0.061728395061728385,6.1728395061728385,0)" xlink:href="#aM"/></g><g id="v"><use transform="matrix(0.061728395061728385,0,0,0.061728395061728385,0,0)" xlink:href="#aP"/><use transform="matrix(0.061728395061728385,0,0,0.061728395061728385,13.518518518518515,0)" xlink:href="#aM"/><use transform="matrix(0.061728395061728385,0,0,0.061728395061728385,25.864197530864192,0)" xlink:href="#az"/><use transform="matrix(0.061728395061728385,0,0,0.061728395061728385,38.20987654320987,0)" xlink:href="#ay"/></g><use transform="matrix(0.061728395061728385,0,0,0.061728395061728385,0,0)" xlink:href="#aA" id="w"/><g id="x"><use transform="matrix(0.061728395061728385,0,0,0.061728395061728385,0,0)" xlink:href="#aC"/><use transform="matrix(0.061728395061728385,0,0,0.061728395061728385,13.518518518518515,0)" xlink:href="#ay"/><use transform="matrix(0.061728395061728385,0,0,0.061728395061728385,22.16049382716049,0)" xlink:href="#ar"/><use transform="matrix(0.061728395061728385,0,0,0.061728395061728385,28.33333333333333,0)" xlink:href="#aK"/><use transform="matrix(0.061728395061728385,0,0,0.061728395061728385,40.679012345679006,0)" xlink:href="#az"/><use transform="matrix(0.061728395061728385,0,0,0.061728395061728385,53.02469135802468,0)" xlink:href="#ay"/></g><g id="y"><use transform="matrix(0.061728395061728385,0,0,0.061728395061728385,0,0)" xlink:href="#ap"/><use transform="matrix(0.061728395061728385,0,0,0.061728395061728385,13.518518518518515,0)" xlink:href="#ay"/></g><path fill="#fff" d="M163-185c-5-40-82-31-84 8l-47-7c13-42 43-68 99-67 46 1 82 17 82 62 0 69-80 60-96 114H70c8-55 68-59 91-98 1-4 2-7 2-12zM54 0l9-47h51l-9 47H54" id="bq"/><g id="z"><use transform="matrix(0.061728395061728385,0,0,0.061728395061728385,0,0)" xlink:href="#ay"/><use transform="matrix(0.061728395061728385,0,0,0.061728395061728385,8.641975308641975,0)" xlink:href="#ar"/><use transform="matrix(0.061728395061728385,0,0,0.061728395061728385,14.814814814814813,0)" xlink:href="#aC"/><use transform="matrix(0.061728395061728385,0,0,0.061728395061728385,28.33333333333333,0)" xlink:href="#az"/><use transform="matrix(0.061728395061728385,0,0,0.061728395061728385,40.679012345679006,0)" xlink:href="#ay"/><use transform="matrix(0.061728395061728385,0,0,0.061728395061728385,49.32098765432098,0)" xlink:href="#bq"/></g><g id="A"><use transform="matrix(0.05802469135802469,0,0,0.05802469135802469,0,0)" xlink:href="#aH"/><use transform="matrix(0.05802469135802469,0,0,0.05802469135802469,13.925925925925926,0)" xlink:href="#az"/><use transform="matrix(0.05802469135802469,0,0,0.05802469135802469,25.530864197530864,0)" xlink:href="#aB"/></g><g id="B"><use transform="matrix(0.05802469135802469,0,0,0.05802469135802469,0,0)" xlink:href="#ay"/><use transform="matrix(0.05802469135802469,0,0,0.05802469135802469,8.123456790123457,0)" xlink:href="#ar"/><use transform="matrix(0.05802469135802469,0,0,0.05802469135802469,13.925925925925927,0)" xlink:href="#aC"/><use transform="matrix(0.05802469135802469,0,0,0.05802469135802469,26.633333333333333,0)" xlink:href="#az"/></g><g id="C"><use transform="matrix(0.05802469135802469,0,0,0.05802469135802469,0,0)" xlink:href="#aC"/><use transform="matrix(0.05802469135802469,0,0,0.05802469135802469,12.707407407407407,0)" xlink:href="#az"/><use transform="matrix(0.05802469135802469,0,0,0.05802469135802469,24.312345679012346,0)" xlink:href="#aB"/><use transform="matrix(0.05802469135802469,0,0,0.05802469135802469,31.217283950617283,0)" xlink:href="#aA"/><use transform="matrix(0.05802469135802469,0,0,0.05802469135802469,42.82222222222222,0)" xlink:href="#ar"/><use transform="matrix(0.05802469135802469,0,0,0.05802469135802469,48.62469135802469,0)" xlink:href="#ao"/><use transform="matrix(0.05802469135802469,0,0,0.05802469135802469,54.42716049382716,0)" xlink:href="#aM"/></g><path fill="#fff" d="M13-52c0-97 37-163 91-209h50c-53 52-92 115-92 212 0 48 8 90 25 124H39C22 40 13-2 13-52" id="br"/><path fill="#fff" d="M69-54C61-12 54 32 29 56H-4C11 41 25 23 31 0H8l10-54h51" id="bs"/><g id="D"><use transform="matrix(0.05802469135802469,0,0,0.05802469135802469,0,0)" xlink:href="#br"/><use transform="matrix(0.05802469135802469,0,0,0.05802469135802469,6.904938271604938,0)" xlink:href="#aC"/><use transform="matrix(0.05802469135802469,0,0,0.05802469135802469,19.612345679012346,0)" xlink:href="#aA"/><use transform="matrix(0.05802469135802469,0,0,0.05802469135802469,31.21728395061729,0)" xlink:href="#aB"/><use transform="matrix(0.05802469135802469,0,0,0.05802469135802469,38.12222222222223,0)" xlink:href="#az"/><use transform="matrix(0.05802469135802469,0,0,0.05802469135802469,49.727160493827164,0)" xlink:href="#bs"/></g><path fill="#fff" d="M255-194c90 0 29 129 24 194h-49l25-136c-7-39-53-14-60 9-12 38-18 85-28 127h-49l25-136c2-29-39-23-50-7C69-108 68-47 56 0H6l36-190h48c-1 10-6 24-4 32 12-20 27-36 57-36s46 15 50 41c14-21 29-41 62-41" id="bt"/><g id="E"><use transform="matrix(0.05802469135802469,0,0,0.05802469135802469,0,0)" xlink:href="#aB"/><use transform="matrix(0.05802469135802469,0,0,0.05802469135802469,6.904938271604938,0)" xlink:href="#ar"/><use transform="matrix(0.05802469135802469,0,0,0.05802469135802469,12.707407407407407,0)" xlink:href="#bt"/><use transform="matrix(0.05802469135802469,0,0,0.05802469135802469,31.275308641975307,0)" xlink:href="#az"/><use transform="matrix(0.05802469135802469,0,0,0.05802469135802469,42.880246913580244,0)" xlink:href="#bs"/></g><path fill="#fff" d="M128 0L95-87 70-74 55 0H6l51-261h49L77-111l82-79h56l-83 74L180 0h-52" id="bu"/><g id="F"><use transform="matrix(0.05802469135802469,0,0,0.05802469135802469,0,0)" xlink:href="#aN"/><use transform="matrix(0.05802469135802469,0,0,0.05802469135802469,12.707407407407407,0)" xlink:href="#ar"/><use transform="matrix(0.05802469135802469,0,0,0.05802469135802469,18.509876543209877,0)" xlink:href="#aI"/><use transform="matrix(0.05802469135802469,0,0,0.05802469135802469,30.114814814814814,0)" xlink:href="#bu"/><use transform="matrix(0.05802469135802469,0,0,0.05802469135802469,41.71975308641975,0)" xlink:href="#aP"/><use transform="matrix(0.05802469135802469,0,0,0.05802469135802469,54.42716049382716,0)" xlink:href="#aN"/></g><g id="G"><use transform="matrix(0.05802469135802469,0,0,0.05802469135802469,0,0)" xlink:href="#ao"/><use transform="matrix(0.05802469135802469,0,0,0.05802469135802469,5.802469135802469,0)" xlink:href="#ap"/><use transform="matrix(0.05802469135802469,0,0,0.05802469135802469,18.509876543209877,0)" xlink:href="#aI"/><use transform="matrix(0.05802469135802469,0,0,0.05802469135802469,30.114814814814814,0)" xlink:href="#aA"/><use transform="matrix(0.05802469135802469,0,0,0.05802469135802469,41.71975308641975,0)" xlink:href="#aB"/><use transform="matrix(0.05802469135802469,0,0,0.05802469135802469,48.62469135802469,0)" xlink:href="#ar"/><use transform="matrix(0.05802469135802469,0,0,0.05802469135802469,54.42716049382716,0)" xlink:href="#ap"/><use transform="matrix(0.05802469135802469,0,0,0.05802469135802469,67.13456790123456,0)" xlink:href="#as"/><use transform="matrix(0.05802469135802469,0,0,0.05802469135802469,79.84197530864196,0)" xlink:href="#bs"/></g><path fill="#fff" d="M8 0l10-54h51L59 0H8" id="bv"/><path fill="#fff" d="M109-139C109-39 71 27 18 75h-50C22 21 61-44 61-142c0-46-11-87-27-119h47c17 31 28 75 28 122" id="bw"/><g id="H"><use transform="matrix(0.05802469135802469,0,0,0.05802469135802469,0,0)" xlink:href="#az"/><use transform="matrix(0.05802469135802469,0,0,0.05802469135802469,11.604938271604938,0)" xlink:href="#aB"/><use transform="matrix(0.05802469135802469,0,0,0.05802469135802469,18.509876543209877,0)" xlink:href="#aI"/><use transform="matrix(0.05802469135802469,0,0,0.05802469135802469,30.114814814814814,0)" xlink:href="#bv"/><use transform="matrix(0.05802469135802469,0,0,0.05802469135802469,35.91728395061728,0)" xlink:href="#bw"/></g><g id="I"><use transform="matrix(0.06172839506172839,0,0,0.06172839506172839,0,0)" xlink:href="#aH"/><use transform="matrix(0.06172839506172839,0,0,0.06172839506172839,14.814814814814813,0)" xlink:href="#az"/><use transform="matrix(0.06172839506172839,0,0,0.06172839506172839,27.160493827160494,0)" xlink:href="#ao"/><use transform="matrix(0.06172839506172839,0,0,0.06172839506172839,33.333333333333336,0)" xlink:href="#az"/><use transform="matrix(0.06172839506172839,0,0,0.06172839506172839,45.67901234567901,0)" xlink:href="#aI"/><use transform="matrix(0.06172839506172839,0,0,0.06172839506172839,58.02469135802469,0)" xlink:href="#aB"/></g><g id="J"><use transform="matrix(0.06172839506172839,0,0,0.06172839506172839,0,0)" xlink:href="#aC"/><use transform="matrix(0.06172839506172839,0,0,0.06172839506172839,13.518518518518517,0)" xlink:href="#az"/><use transform="matrix(0.06172839506172839,0,0,0.06172839506172839,25.864197530864196,0)" xlink:href="#aM"/><use transform="matrix(0.06172839506172839,0,0,0.06172839506172839,38.20987654320987,0)" xlink:href="#ar"/><use transform="matrix(0.06172839506172839,0,0,0.06172839506172839,44.382716049382715,0)" xlink:href="#ay"/><use transform="matrix(0.06172839506172839,0,0,0.06172839506172839,53.02469135802469,0)" xlink:href="#az"/><use transform="matrix(0.06172839506172839,0,0,0.06172839506172839,65.37037037037037,0)" xlink:href="#aC"/></g><g id="K"><use transform="matrix(0.06172839506172839,0,0,0.06172839506172839,0,0)" xlink:href="#ay"/><use transform="matrix(0.06172839506172839,0,0,0.06172839506172839,8.641975308641975,0)" xlink:href="#ar"/><use transform="matrix(0.06172839506172839,0,0,0.06172839506172839,14.814814814814813,0)" xlink:href="#aC"/><use transform="matrix(0.06172839506172839,0,0,0.06172839506172839,28.33333333333333,0)" xlink:href="#az"/><use transform="matrix(0.06172839506172839,0,0,0.06172839506172839,40.679012345679006,0)" xlink:href="#br"/><use transform="matrix(0.06172839506172839,0,0,0.06172839506172839,48.02469135802468,0)" xlink:href="#aM"/><use transform="matrix(0.06172839506172839,0,0,0.06172839506172839,60.37037037037036,0)" xlink:href="#bw"/></g><path fill="#fff" d="M241-173c-1 82-78 91-166 86L58 0H6l48-248c87 0 188-12 187 75zm-53 2c0-43-48-36-90-36l-15 80c50 0 105 7 105-44" id="bx"/><g id="L"><use transform="matrix(0.05802469135802468,0,0,0.05802469135802468,0,0)" xlink:href="#bx"/><use transform="matrix(0.05802469135802468,0,0,0.05802469135802468,13.925925925925924,0)" xlink:href="#aP"/><use transform="matrix(0.05802469135802468,0,0,0.05802469135802468,26.63333333333333,0)" xlink:href="#aL"/><use transform="matrix(0.05802469135802468,0,0,0.05802469135802468,39.340740740740735,0)" xlink:href="#ao"/><use transform="matrix(0.05802469135802468,0,0,0.05802469135802468,45.1432098765432,0)" xlink:href="#ar"/><use transform="matrix(0.05802469135802468,0,0,0.05802469135802468,50.94567901234567,0)" xlink:href="#aM"/><use transform="matrix(0.05802469135802468,0,0,0.05802469135802468,62.55061728395061,0)" xlink:href="#aJ"/></g><g id="M"><use transform="matrix(0.05802469135802468,0,0,0.05802469135802468,0,0)" xlink:href="#aB"/><use transform="matrix(0.05802469135802468,0,0,0.05802469135802468,6.904938271604937,0)" xlink:href="#aJ"/><use transform="matrix(0.05802469135802468,0,0,0.05802469135802468,19.612345679012343,0)" xlink:href="#az"/></g><g id="N"><use transform="matrix(0.05802469135802468,0,0,0.05802469135802468,0,0)" xlink:href="#ap"/><use transform="matrix(0.05802469135802468,0,0,0.05802469135802468,12.707407407407405,0)" xlink:href="#aD"/><use transform="matrix(0.05802469135802468,0,0,0.05802469135802468,19.20617283950617,0)" xlink:href="#aD"/><use transform="matrix(0.05802469135802468,0,0,0.05802469135802468,26.111111111111107,0)" xlink:href="#az"/><use transform="matrix(0.05802469135802468,0,0,0.05802469135802468,37.716049382716044,0)" xlink:href="#ay"/><use transform="matrix(0.05802469135802468,0,0,0.05802469135802468,45.8395061728395,0)" xlink:href="#ar"/><use transform="matrix(0.05802469135802468,0,0,0.05802469135802468,51.64197530864197,0)" xlink:href="#as"/><use transform="matrix(0.05802469135802468,0,0,0.05802469135802468,64.34938271604938,0)" xlink:href="#aq"/></g><path fill="#fff" d="M212 0h-52l-8-156L82 0H30L17-190h46l2 145 66-145h53l8 145 60-145h47" id="by"/><g id="O"><use transform="matrix(0.05802469135802468,0,0,0.05802469135802468,0,0)" xlink:href="#by"/><use transform="matrix(0.05802469135802468,0,0,0.05802469135802468,16.24691358024691,0)" xlink:href="#ar"/><use transform="matrix(0.05802469135802468,0,0,0.05802469135802468,22.04938271604938,0)" xlink:href="#aB"/><use transform="matrix(0.05802469135802468,0,0,0.05802469135802468,28.954320987654317,0)" xlink:href="#aJ"/><use transform="matrix(0.05802469135802468,0,0,0.05802469135802468,41.66172839506172,0)" xlink:href="#ar"/><use transform="matrix(0.05802469135802468,0,0,0.05802469135802468,47.46419753086419,0)" xlink:href="#as"/></g><g id="P"><use transform="matrix(0.05802469135802468,0,0,0.05802469135802468,0,0)" xlink:href="#aB"/><use transform="matrix(0.05802469135802468,0,0,0.05802469135802468,6.904938271604937,0)" xlink:href="#aJ"/><use transform="matrix(0.05802469135802468,0,0,0.05802469135802468,19.612345679012343,0)" xlink:href="#az"/></g><path fill="#fff" d="M-6 0l7-35 114-120H31l7-35h142l-7 35L59-36h100l-7 36H-6" id="bz"/><g id="Q"><use transform="matrix(0.05802469135802468,0,0,0.05802469135802468,0,0)" xlink:href="#ap"/><use transform="matrix(0.05802469135802468,0,0,0.05802469135802468,12.707407407407405,0)" xlink:href="#ay"/><use transform="matrix(0.05802469135802468,0,0,0.05802469135802468,20.83086419753086,0)" xlink:href="#aq"/><use transform="matrix(0.05802469135802468,0,0,0.05802469135802468,33.53827160493827,0)" xlink:href="#aA"/><use transform="matrix(0.05802469135802468,0,0,0.05802469135802468,45.1432098765432,0)" xlink:href="#as"/><use transform="matrix(0.05802469135802468,0,0,0.05802469135802468,57.85061728395061,0)" xlink:href="#ar"/><use transform="matrix(0.05802469135802468,0,0,0.05802469135802468,63.65308641975308,0)" xlink:href="#bz"/><use transform="matrix(0.05802469135802468,0,0,0.05802469135802468,74.09753086419752,0)" xlink:href="#aA"/><use transform="matrix(0.05802469135802468,0,0,0.05802469135802468,85.70246913580246,0)" xlink:href="#aB"/><use transform="matrix(0.05802469135802468,0,0,0.05802469135802468,92.6074074074074,0)" xlink:href="#ar"/><use transform="matrix(0.05802469135802468,0,0,0.05802469135802468,98.40987654320986,0)" xlink:href="#ap"/><use transform="matrix(0.05802469135802468,0,0,0.05802469135802468,111.11728395061726,0)" xlink:href="#as"/></g><path fill="#fff" d="M253 0h-61l-6-196c-25 68-54 131-82 196H42L26-248h50l7 204 86-204h55l8 204 82-204h51" id="bA"/><g id="R"><use transform="matrix(0.05802469135802469,0,0,0.05802469135802469,0,0)" xlink:href="#bA"/><use transform="matrix(0.05802469135802469,0,0,0.05802469135802469,19.264197530864198,0)" xlink:href="#aA"/><use transform="matrix(0.05802469135802469,0,0,0.05802469135802469,30.869135802469142,0)" xlink:href="#ar"/><use transform="matrix(0.05802469135802469,0,0,0.05802469135802469,36.67160493827161,0)" xlink:href="#aB"/></g><g id="S"><use transform="matrix(0.05802469135802469,0,0,0.05802469135802469,0,0)" xlink:href="#aD"/><use transform="matrix(0.05802469135802469,0,0,0.05802469135802469,6.904938271604938,0)" xlink:href="#ap"/><use transform="matrix(0.05802469135802469,0,0,0.05802469135802469,19.612345679012346,0)" xlink:href="#ay"/></g><g id="T"><use transform="matrix(0.05802469135802469,0,0,0.05802469135802469,0,0)" xlink:href="#ay"/><use transform="matrix(0.05802469135802469,0,0,0.05802469135802469,8.123456790123457,0)" xlink:href="#ar"/><use transform="matrix(0.05802469135802469,0,0,0.05802469135802469,13.925925925925927,0)" xlink:href="#aC"/><use transform="matrix(0.05802469135802469,0,0,0.05802469135802469,26.633333333333333,0)" xlink:href="#az"/><use transform="matrix(0.05802469135802469,0,0,0.05802469135802469,38.23827160493827,0)" xlink:href="#ay"/><use transform="matrix(0.05802469135802469,0,0,0.05802469135802469,46.361728395061725,0)" xlink:href="#aM"/></g><g id="U"><use transform="matrix(0.05802469135802469,0,0,0.05802469135802469,0,0)" xlink:href="#aB"/><use transform="matrix(0.05802469135802469,0,0,0.05802469135802469,6.904938271604938,0)" xlink:href="#ap"/></g><path fill="#fff" d="M50-224l7-37h49l-7 37H50zm1 246C45 64 7 85-39 71l7-33c23 5 33-8 36-27l39-201h49" id="bB"/><g id="V"><use transform="matrix(0.05802469135802469,0,0,0.05802469135802469,0,0)" xlink:href="#bB"/><use transform="matrix(0.05802469135802469,0,0,0.05802469135802469,5.802469135802469,0)" xlink:href="#ap"/><use transform="matrix(0.05802469135802469,0,0,0.05802469135802469,18.509876543209877,0)" xlink:href="#ar"/><use transform="matrix(0.05802469135802469,0,0,0.05802469135802469,24.312345679012346,0)" xlink:href="#as"/></g><path fill="#fff" d="M258-177c0 46-32 67-71 75L235 0h-57l-41-94H76L58 0H6l48-248c89 2 204-19 204 71zm-53 3c0-46-63-30-107-33l-14 73c51-2 120 13 121-40" id="bC"/><g id="W"><use transform="matrix(0.06172839506172839,0,0,0.06172839506172839,0,0)" xlink:href="#bC"/><use transform="matrix(0.06172839506172839,0,0,0.06172839506172839,15.987654320987653,0)" xlink:href="#az"/><use transform="matrix(0.06172839506172839,0,0,0.06172839506172839,28.333333333333332,0)" xlink:href="#aM"/><use transform="matrix(0.06172839506172839,0,0,0.06172839506172839,40.67901234567901,0)" xlink:href="#az"/><use transform="matrix(0.06172839506172839,0,0,0.06172839506172839,53.02469135802469,0)" xlink:href="#ay"/><use transform="matrix(0.06172839506172839,0,0,0.06172839506172839,61.666666666666664,0)" xlink:href="#aK"/><use transform="matrix(0.06172839506172839,0,0,0.06172839506172839,74.01234567901234,0)" xlink:href="#az"/></g><g id="X"><use transform="matrix(0.06172839506172839,0,0,0.06172839506172839,0,0)" xlink:href="#aM"/><use transform="matrix(0.06172839506172839,0,0,0.06172839506172839,12.345679012345679,0)" xlink:href="#az"/><use transform="matrix(0.06172839506172839,0,0,0.06172839506172839,24.691358024691358,0)" xlink:href="#aA"/><use transform="matrix(0.06172839506172839,0,0,0.06172839506172839,37.03703703703704,0)" xlink:href="#aB"/><use transform="matrix(0.06172839506172839,0,0,0.06172839506172839,44.382716049382715,0)" xlink:href="#br"/><use transform="matrix(0.06172839506172839,0,0,0.06172839506172839,51.72839506172839,0)" xlink:href="#aM"/><use transform="matrix(0.06172839506172839,0,0,0.06172839506172839,64.07407407407408,0)" xlink:href="#bw"/></g><path fill="#fff" d="M183 0l-10-63H79L44 0H-7l138-248h61L234 0h-51zm-14-102l-15-108c-16 38-36 73-55 108h70" id="bD"/><g id="Y"><use transform="matrix(0.05802469135802468,0,0,0.05802469135802468,0,0)" xlink:href="#bD"/><use transform="matrix(0.05802469135802468,0,0,0.05802469135802468,15.028395061728393,0)" xlink:href="#ay"/><use transform="matrix(0.05802469135802468,0,0,0.05802469135802468,23.15185185185185,0)" xlink:href="#az"/></g><g id="Z"><use transform="matrix(0.05802469135802468,0,0,0.05802469135802468,0,0)" xlink:href="#aB"/><use transform="matrix(0.05802469135802468,0,0,0.05802469135802468,6.904938271604937,0)" xlink:href="#aJ"/><use transform="matrix(0.05802469135802468,0,0,0.05802469135802468,19.612345679012343,0)" xlink:href="#az"/><use transform="matrix(0.05802469135802468,0,0,0.05802469135802468,31.21728395061728,0)" xlink:href="#ay"/><use transform="matrix(0.05802469135802468,0,0,0.05802469135802468,39.340740740740735,0)" xlink:href="#az"/></g><g id="aa"><use transform="matrix(0.05802469135802468,0,0,0.05802469135802468,0,0)" xlink:href="#aA"/><use transform="matrix(0.05802469135802468,0,0,0.05802469135802468,11.604938271604937,0)" xlink:href="#as"/><use transform="matrix(0.05802469135802468,0,0,0.05802469135802468,24.312345679012342,0)" xlink:href="#aO"/></g><g id="ab"><use transform="matrix(0.05802469135802468,0,0,0.05802469135802468,0,0)" xlink:href="#ar"/><use transform="matrix(0.05802469135802468,0,0,0.05802469135802468,5.802469135802468,0)" xlink:href="#aM"/><use transform="matrix(0.05802469135802468,0,0,0.05802469135802468,17.407407407407405,0)" xlink:href="#aM"/><use transform="matrix(0.05802469135802468,0,0,0.05802469135802468,29.01234567901234,0)" xlink:href="#aP"/><use transform="matrix(0.05802469135802468,0,0,0.05802469135802468,41.71975308641974,0)" xlink:href="#az"/><use transform="matrix(0.05802469135802468,0,0,0.05802469135802468,53.32469135802468,0)" xlink:href="#aM"/></g><g id="ac"><use transform="matrix(0.05802469135802468,0,0,0.05802469135802468,0,0)" xlink:href="#ap"/><use transform="matrix(0.05802469135802468,0,0,0.05802469135802468,12.707407407407405,0)" xlink:href="#ay"/></g><g id="ad"><use transform="matrix(0.05802469135802468,0,0,0.05802469135802468,0,0)" xlink:href="#aI"/><use transform="matrix(0.05802469135802468,0,0,0.05802469135802468,11.604938271604937,0)" xlink:href="#ap"/><use transform="matrix(0.05802469135802468,0,0,0.05802469135802468,24.312345679012342,0)" xlink:href="#as"/><use transform="matrix(0.05802469135802468,0,0,0.05802469135802468,37.01975308641975,0)" xlink:href="#aD"/><use transform="matrix(0.05802469135802468,0,0,0.05802469135802468,43.92469135802469,0)" xlink:href="#ao"/><use transform="matrix(0.05802469135802468,0,0,0.05802469135802468,49.72716049382716,0)" xlink:href="#ar"/><use transform="matrix(0.05802469135802468,0,0,0.05802469135802468,55.529629629629625,0)" xlink:href="#aI"/><use transform="matrix(0.05802469135802468,0,0,0.05802469135802468,67.13456790123456,0)" xlink:href="#aB"/><use transform="matrix(0.05802469135802468,0,0,0.05802469135802468,74.0395061728395,0)" xlink:href="#aM"/><use transform="matrix(0.05802469135802468,0,0,0.05802469135802468,85.64444444444443,0)" xlink:href="#bq"/></g><path fill="#3a414a" d="M137-103V0h-34v-103L8-248h37l75 118 75-118h37" id="bE"/><path fill="#3a414a" d="M135-143c-3-34-86-38-87 0 15 53 115 12 119 90S17 21 10-45l28-5c4 36 97 45 98 0-10-56-113-15-118-90-4-57 82-63 122-42 12 7 21 19 24 35" id="bF"/><g id="ae"><use transform="matrix(0.06172839506172839,0,0,0.06172839506172839,0,0)" xlink:href="#bE"/><use transform="matrix(0.06172839506172839,0,0,0.06172839506172839,12.777777777777777,0)" xlink:href="#bo"/><use transform="matrix(0.06172839506172839,0,0,0.06172839506172839,25.123456790123456,0)" xlink:href="#bF"/></g><g id="af"><use transform="matrix(0.06419753086419754,0,0,0.06419753086419754,0,0)" xlink:href="#bC"/><use transform="matrix(0.06419753086419754,0,0,0.06419753086419754,16.627160493827162,0)" xlink:href="#az"/><use transform="matrix(0.06419753086419754,0,0,0.06419753086419754,29.46666666666667,0)" xlink:href="#aM"/><use transform="matrix(0.06419753086419754,0,0,0.06419753086419754,42.306172839506175,0)" xlink:href="#ap"/><use transform="matrix(0.06419753086419754,0,0,0.06419753086419754,56.36543209876544,0)" xlink:href="#ao"/><use transform="matrix(0.06419753086419754,0,0,0.06419753086419754,62.78518518518519,0)" xlink:href="#aK"/><use transform="matrix(0.06419753086419754,0,0,0.06419753086419754,75.6246913580247,0)" xlink:href="#az"/></g><g id="ag"><use transform="matrix(0.06419753086419754,0,0,0.06419753086419754,0,0)" xlink:href="#aB"/><use transform="matrix(0.06419753086419754,0,0,0.06419753086419754,7.639506172839507,0)" xlink:href="#aJ"/><use transform="matrix(0.06419753086419754,0,0,0.06419753086419754,21.698765432098767,0)" xlink:href="#az"/></g><g id="ah"><use transform="matrix(0.06419753086419754,0,0,0.06419753086419754,0,0)" xlink:href="#ar"/><use transform="matrix(0.06419753086419754,0,0,0.06419753086419754,6.419753086419753,0)" xlink:href="#aM"/><use transform="matrix(0.06419753086419754,0,0,0.06419753086419754,19.25925925925926,0)" xlink:href="#aM"/><use transform="matrix(0.06419753086419754,0,0,0.06419753086419754,32.098765432098766,0)" xlink:href="#aP"/><use transform="matrix(0.06419753086419754,0,0,0.06419753086419754,46.15802469135802,0)" xlink:href="#az"/></g><g id="ai"><use transform="matrix(0.06419753086419754,0,0,0.06419753086419754,0,0)" xlink:href="#aH"/><use transform="matrix(0.06419753086419754,0,0,0.06419753086419754,15.407407407407408,0)" xlink:href="#aB"/><use transform="matrix(0.06419753086419754,0,0,0.06419753086419754,23.046913580246915,0)" xlink:href="#aA"/><use transform="matrix(0.06419753086419754,0,0,0.06419753086419754,35.88641975308642,0)" xlink:href="#ay"/><use transform="matrix(0.06419753086419754,0,0,0.06419753086419754,44.87407407407407,0)" xlink:href="#aB"/></g><g id="aj"><use transform="matrix(0.06419753086419754,0,0,0.06419753086419754,0,0)" xlink:href="#bC"/><use transform="matrix(0.06419753086419754,0,0,0.06419753086419754,16.627160493827162,0)" xlink:href="#ar"/><use transform="matrix(0.06419753086419754,0,0,0.06419753086419754,23.046913580246915,0)" xlink:href="#aC"/><use transform="matrix(0.06419753086419754,0,0,0.06419753086419754,37.10617283950617,0)" xlink:href="#az"/></g><path fill="#fff" d="M51-77c-1 38 59 57 67 15l29-145H98l7-41h101L172-74C175 7 45 32 13-37c-4-9-7-19-9-30" id="bG"/><g id="ak"><use transform="matrix(0.06419753086419754,0,0,0.06419753086419754,0,0)" xlink:href="#bG"/><use transform="matrix(0.06419753086419754,0,0,0.06419753086419754,12.839506172839506,0)" xlink:href="#ap"/><use transform="matrix(0.06419753086419754,0,0,0.06419753086419754,26.898765432098767,0)" xlink:href="#ar"/><use transform="matrix(0.06419753086419754,0,0,0.06419753086419754,33.318518518518516,0)" xlink:href="#as"/></g><g id="al"><use transform="matrix(0.06419753086419754,0,0,0.06419753086419754,0,0)" xlink:href="#bx"/><use transform="matrix(0.06419753086419754,0,0,0.06419753086419754,15.407407407407408,0)" xlink:href="#ay"/><use transform="matrix(0.06419753086419754,0,0,0.06419753086419754,24.395061728395063,0)" xlink:href="#ap"/><use transform="matrix(0.06419753086419754,0,0,0.06419753086419754,38.45432098765433,0)" xlink:href="#aK"/><use transform="matrix(0.06419753086419754,0,0,0.06419753086419754,51.293827160493834,0)" xlink:href="#ar"/><use transform="matrix(0.06419753086419754,0,0,0.06419753086419754,57.71358024691359,0)" xlink:href="#aC"/><use transform="matrix(0.06419753086419754,0,0,0.06419753086419754,71.77283950617284,0)" xlink:href="#az"/></g><path fill="#fff" d="M98-208l-15 77h118l-8 40H76L58 0H6l48-248h174l-8 40H98" id="bH"/><g id="am"><use transform="matrix(0.06419753086419754,0,0,0.06419753086419754,0,0)" xlink:href="#bH"/><use transform="matrix(0.06419753086419754,0,0,0.06419753086419754,14.05925925925926,0)" xlink:href="#az"/><use transform="matrix(0.06419753086419754,0,0,0.06419753086419754,26.898765432098767,0)" xlink:href="#az"/><use transform="matrix(0.06419753086419754,0,0,0.06419753086419754,39.73827160493828,0)" xlink:href="#aC"/><use transform="matrix(0.06419753086419754,0,0,0.06419753086419754,53.79753086419754,0)" xlink:href="#aL"/><use transform="matrix(0.06419753086419754,0,0,0.06419753086419754,67.8567901234568,0)" xlink:href="#aA"/><use transform="matrix(0.06419753086419754,0,0,0.06419753086419754,80.69629629629631,0)" xlink:href="#aI"/><use transform="matrix(0.06419753086419754,0,0,0.06419753086419754,93.53580246913583,0)" xlink:href="#bu"/></g><path fill="#fff" d="M6 0l48-248h195l-8 40H98l-12 63h132l-7 40H79L66-40h150l-8 40H6" id="bI"/><g id="an"><use transform="matrix(0.06419753086419754,0,0,0.06419753086419754,0,0)" xlink:href="#bI"/><use transform="matrix(0.06419753086419754,0,0,0.06419753086419754,15.407407407407408,0)" xlink:href="#as"/><use transform="matrix(0.06419753086419754,0,0,0.06419753086419754,29.46666666666667,0)" xlink:href="#aC"/></g></defs></g></svg>