<svg xmlns="http://www.w3.org/2000/svg" xmlns:xlink="http://www.w3.org/1999/xlink" xmlns:lucid="lucid" width="913.71" height="839.53"><g transform="translate(440 320)" lucid:page-tab-id="0_0"><path d="M-1806.87-1258.84h3677.74v2581.68h-3677.74z" fill="#fff"/><path d="M40 194.53h300v240H40z" stroke="#333" stroke-width="2" fill="#fff"/><path d="M40 232.13h300M40 376.63h300" stroke="#333" stroke-width="2" fill="none"/><use xlink:href="#a" transform="matrix(1,0,0,1,48,202.53333333310053) translate(127.025 14.6)"/><use xlink:href="#b" transform="matrix(1,0,0,1,52,240.13333333310052) translate(0 24.89999999999999)"/><use xlink:href="#c" transform="matrix(1,0,0,1,52,240.13333333310052) translate(63.400000000000006 24.89999999999999)"/><use xlink:href="#d" transform="matrix(1,0,0,1,52,240.13333333310052) translate(0 46.49999999999999)"/><use xlink:href="#e" transform="matrix(1,0,0,1,52,240.13333333310052) translate(65.35 46.49999999999999)"/><use xlink:href="#f" transform="matrix(1,0,0,1,52,240.13333333310052) translate(0 68.1)"/><use xlink:href="#c" transform="matrix(1,0,0,1,52,240.13333333310052) translate(64.45 68.1)"/><use xlink:href="#g" transform="matrix(1,0,0,1,52,240.13333333310052) translate(0 89.70000000000002)"/><use xlink:href="#c" transform="matrix(1,0,0,1,52,240.13333333310052) translate(69.4 89.70000000000002)"/><use xlink:href="#h" transform="matrix(1,0,0,1,52,240.13333333310052) translate(0 111.30000000000001)"/><use xlink:href="#i" transform="matrix(1,0,0,1,52,240.13333333310052) translate(55.45 111.30000000000001)"/><path d="M-400-292a8 8 0 0 1 8-8h836.75a8 8 0 0 1 8 8v25.15a8 8 0 0 1-8 8H-392a8 8 0 0 1-8-8z" stroke="#000" stroke-opacity="0" stroke-width="2" fill="#fff" fill-opacity="0"/><use xlink:href="#j" transform="matrix(1,0,0,1,-396,-296) translate(317.1803703703704 19.738333333333337)"/><use xlink:href="#k" transform="matrix(1,0,0,1,-396,-296) translate(368.92851851851856 19.738333333333337)"/><use xlink:href="#l" transform="matrix(1,0,0,1,-396,-296) translate(444.42481481481485 19.738333333333337)"/><path d="M-123.52-260.2h309.36M-123.5-260.2h-1.02M185.82-260.2h1.02" stroke="#a9afb8" stroke-width="2" fill="none"/><path d="M-400-250.84a8 8 0 0 1 8-8h837.7a8 8 0 0 1 8 8v2.84a8 8 0 0 1-8 8H-392a8 8 0 0 1-8-8z" stroke="#000" stroke-opacity="0" stroke-width="2" fill="#fff" fill-opacity="0"/><use xlink:href="#m" transform="matrix(1,0,0,1,-395.9999999999996,-254.8447760431012) translate(376.2783641975309 14.917037037037037)"/><use xlink:href="#n" transform="matrix(1,0,0,1,-395.9999999999996,-254.8447760431012) translate(431.3875205761317 14.917037037037037)"/><path d="M-200-180h480.05V60H-200z" stroke="#333" stroke-width="2" fill="#fff"/><path d="M-200-142.4h480.05M-200 2.1h480.05" stroke="#333" stroke-width="2" fill="none"/><use xlink:href="#o" transform="matrix(1,0,0,1,-192,-172) translate(212.525 14.6)"/><use xlink:href="#p" transform="matrix(1,0,0,1,-188,-134.4) translate(0 24.89999999999999)"/><use xlink:href="#q" transform="matrix(1,0,0,1,-188,-134.4) translate(15.5 24.89999999999999)"/><use xlink:href="#c" transform="matrix(1,0,0,1,-188,-134.4) translate(70.45 24.89999999999999)"/><use xlink:href="#r" transform="matrix(1,0,0,1,-188,-134.4) translate(0 46.49999999999999)"/><use xlink:href="#s" transform="matrix(1,0,0,1,-188,-134.4) translate(10.95 46.49999999999999)"/><use xlink:href="#c" transform="matrix(1,0,0,1,-188,-134.4) translate(63.80000000000001 46.49999999999999)"/><use xlink:href="#r" transform="matrix(1,0,0,1,-188,-134.4) translate(0 68.1)"/><use xlink:href="#t" transform="matrix(1,0,0,1,-188,-134.4) translate(10.95 68.1)"/><use xlink:href="#c" transform="matrix(1,0,0,1,-188,-134.4) translate(97.85000000000001 68.1)"/><use xlink:href="#p" transform="matrix(1,0,0,1,-188,-134.4) translate(0 89.70000000000002)"/><use xlink:href="#u" transform="matrix(1,0,0,1,-188,-134.4) translate(15.5 89.70000000000002)"/><use xlink:href="#c" transform="matrix(1,0,0,1,-188,-134.4) translate(142 89.70000000000002)"/><use xlink:href="#p" transform="matrix(1,0,0,1,-188,-134.4) translate(0 111.30000000000001)"/><use xlink:href="#v" transform="matrix(1,0,0,1,-188,-134.4) translate(15.5 111.30000000000001)"/><use xlink:href="#w" transform="matrix(1,0,0,1,-188,-134.4) translate(99.4 111.30000000000001)"/><g><use xlink:href="#p" transform="matrix(1,0,0,1,-188,10.099999999999994) translate(0 25.1)"/><use xlink:href="#x" transform="matrix(1,0,0,1,-188,10.099999999999994) translate(15.5 25.1)"/><use xlink:href="#y" transform="matrix(1,0,0,1,-188,10.099999999999994) translate(141.25 25.1)"/><use xlink:href="#z" transform="matrix(1,0,0,1,-188,10.099999999999994) translate(238.15 25.1)"/></g><path d="M-420 194.53H0v305h-420z" stroke="#333" stroke-width="2" fill="#fff"/><path d="M-420 232.13H0m-420 187.7H0" stroke="#333" stroke-width="2" fill="none"/><g><use xlink:href="#A" transform="matrix(1,0,0,1,-412,202.53333333310053) translate(182.55 14.6)"/></g><g><use xlink:href="#B" transform="matrix(1,0,0,1,-408,240.13333333310052) translate(0 24.800000000000004)"/><use xlink:href="#C" transform="matrix(1,0,0,1,-408,240.13333333310052) translate(68.35 24.800000000000004)"/><use xlink:href="#D" transform="matrix(1,0,0,1,-408,240.13333333310052) translate(0 46.400000000000006)"/><use xlink:href="#E" transform="matrix(1,0,0,1,-408,240.13333333310052) translate(65.35 46.400000000000006)"/><use xlink:href="#F" transform="matrix(1,0,0,1,-408,240.13333333310052) translate(0 68.00000000000001)"/><use xlink:href="#G" transform="matrix(1,0,0,1,-408,240.13333333310052) translate(55.5 68.00000000000001)"/><use xlink:href="#H" transform="matrix(1,0,0,1,-408,240.13333333310052) translate(0 89.60000000000002)"/><use xlink:href="#I" transform="matrix(1,0,0,1,-408,240.13333333310052) translate(54.4 89.60000000000002)"/><use xlink:href="#J" transform="matrix(1,0,0,1,-408,240.13333333310052) translate(0 111.20000000000002)"/><use xlink:href="#C" transform="matrix(1,0,0,1,-408,240.13333333310052) translate(140.4 111.20000000000002)"/><use xlink:href="#K" transform="matrix(1,0,0,1,-408,240.13333333310052) translate(0 132.8)"/><use xlink:href="#L" transform="matrix(1,0,0,1,-408,240.13333333310052) translate(137.35000000000002 132.8)"/><use xlink:href="#M" transform="matrix(1,0,0,1,-408,240.13333333310052) translate(0 154.4)"/><use xlink:href="#N" transform="matrix(1,0,0,1,-408,240.13333333310052) translate(113.45 154.4)"/><use xlink:href="#O" transform="matrix(1,0,0,1,-408,240.13333333310052) translate(161.35000000000002 154.4)"/></g><g><use xlink:href="#P" transform="matrix(1,0,0,1,-408,427.83333333310054) translate(0 24.799999999999997)"/><use xlink:href="#Q" transform="matrix(1,0,0,1,-408,427.83333333310054) translate(177.35 24.799999999999997)"/><use xlink:href="#R" transform="matrix(1,0,0,1,-408,427.83333333310054) translate(231.2 24.799999999999997)"/><use xlink:href="#S" transform="matrix(1,0,0,1,-408,427.83333333310054) translate(0 46.4)"/><use xlink:href="#Q" transform="matrix(1,0,0,1,-408,427.83333333310054) translate(207.24999999999997 46.4)"/><use xlink:href="#T" transform="matrix(1,0,0,1,-408,427.83333333310054) translate(261.09999999999997 46.4)"/></g><path d="M40.03 61.5V61" stroke="#3a414a" fill="none"/><path d="M40.53 61.5h-1V61h1z" stroke="#3a414a" stroke-width=".05" fill="#3a414a"/><path d="M40.03 60.72L35.4 46.45h9.26z" stroke="#3a414a" fill="#3a414a"/><path d="M-18.4 81v40.27a6 6 0 0 1-6 6h-180.9a6 6 0 0 0-6 6v20.76" stroke="#3a414a" fill="none"/><path d="M-8.4 61.22l-10 20-10-20" stroke="#3a414a" fill="#fff" fill-opacity="0"/><path d="M-18.4 61.22v20M-28.4 81.22h20" stroke="#3a414a" fill="#fff"/><path d="M-221.3 193.3l10-20 10 20" stroke="#3a414a" fill="#fff" fill-opacity="0"/><path d="M-211.3 193.3v-20M-201.3 163.3c0 5.53-4.47 10-10 10-5.5 0-10-4.47-10-10 0-5.5 4.5-10 10-10 5.53 0 10 4.5 10 10" stroke="#3a414a" fill="#fff"/><path d="M76.27 81v40.27a6 6 0 0 0 6 6H184a6 6 0 0 1 6 6v20.76" stroke="#3a414a" fill="none"/><path d="M66.27 81h20M76.27 61v20M200 183.53h-20M190 193.53v-20M200 163.53c0 5.53-4.48 10-10 10s-10-4.47-10-10c0-5.52 4.48-10 10-10s10 4.48 10 10" stroke="#3a414a" fill="#fff"/><defs><path fill="#333" d="M67-125c0 53 21 87 73 88 37 1 54-22 65-47l45 17C233-25 199 4 140 4 58 4 20-42 15-125 8-235 124-281 211-232c18 10 29 29 36 50l-46 12c-8-25-30-41-62-41-52 0-71 34-72 86" id="U"/><path fill="#333" d="M133-34C117-15 103 5 69 4 32 3 11-16 11-54c-1-60 55-63 116-61 1-26-3-47-28-47-18 1-26 9-28 27l-52-2c7-38 36-58 82-57s74 22 75 68l1 82c-1 14 12 18 25 15v27c-30 8-71 5-69-32zm-48 3c29 0 43-24 42-57-32 0-66-3-65 30 0 17 8 27 23 27" id="V"/><path fill="#333" d="M135-150c-39-12-60 13-60 57V0H25l-1-190h47c2 13-1 29 3 40 6-28 27-53 61-41v41" id="W"/><g id="a"><use transform="matrix(0.05,0,0,0.05,0,0)" xlink:href="#U"/><use transform="matrix(0.05,0,0,0.05,12.950000000000001,0)" xlink:href="#V"/><use transform="matrix(0.05,0,0,0.05,22.950000000000003,0)" xlink:href="#W"/></g><path fill="#333" d="M118-107v75H92v-75H18v-26h74v-75h26v75h74v26h-74" id="X"/><path fill="#333" d="M96-169c-40 0-48 33-48 73s9 75 48 75c24 0 41-14 43-38l32 2c-6 37-31 61-74 61-59 0-76-41-82-99-10-93 101-131 147-64 4 7 5 14 7 22l-32 3c-4-21-16-35-41-35" id="Y"/><path fill="#333" d="M141-36C126-15 110 5 73 4 37 3 15-17 15-53c-1-64 63-63 125-63 3-35-9-54-41-54-24 1-41 7-42 31l-33-3c5-37 33-52 76-52 45 0 72 20 72 64v82c-1 20 7 32 28 27v20c-31 9-61-2-59-35zM48-53c0 20 12 33 32 33 41-3 63-29 60-74-43 2-92-5-92 41" id="Z"/><path fill="#333" d="M114-163C36-179 61-72 57 0H25l-1-190h30c1 12-1 29 2 39 6-27 23-49 58-41v29" id="aa"/><path fill="#333" d="M33 0v-248h34V0H33" id="ab"/><path fill="#333" d="M30-248c118-7 216 8 213 122C240-48 200 0 122 0H30v-248zM63-27c89 8 146-16 146-99s-60-101-146-95v194" id="ac"/><path fill="#333" d="M33-154v-36h34v36H33zM33 0v-36h34V0H33" id="ad"/><g id="b"><use transform="matrix(0.05,0,0,0.05,0,0)" xlink:href="#X"/><use transform="matrix(0.05,0,0,0.05,10.5,0)" xlink:href="#Y"/><use transform="matrix(0.05,0,0,0.05,19.5,0)" xlink:href="#Z"/><use transform="matrix(0.05,0,0,0.05,29.5,0)" xlink:href="#aa"/><use transform="matrix(0.05,0,0,0.05,35.45,0)" xlink:href="#ab"/><use transform="matrix(0.05,0,0,0.05,40.45,0)" xlink:href="#ac"/><use transform="matrix(0.05,0,0,0.05,53.400000000000006,0)" xlink:href="#ad"/></g><path fill="#333" d="M135-143c-3-34-86-38-87 0 15 53 115 12 119 90S17 21 10-45l28-5c4 36 97 45 98 0-10-56-113-15-118-90-4-57 82-63 122-42 12 7 21 19 24 35" id="ae"/><path fill="#333" d="M59-47c-2 24 18 29 38 22v24C64 9 27 4 27-40v-127H5v-23h24l9-43h21v43h35v23H59v120" id="af"/><path fill="#333" d="M24-231v-30h32v30H24zM24 0v-190h32V0H24" id="ag"/><path fill="#333" d="M117-194c89-4 53 116 60 194h-32v-121c0-31-8-49-39-48C34-167 62-67 57 0H25l-1-190h30c1 10-1 24 2 32 11-22 29-35 61-36" id="ah"/><path fill="#333" d="M177-190C167-65 218 103 67 71c-23-6-38-20-44-43l32-5c15 47 100 32 89-28v-30C133-14 115 1 83 1 29 1 15-40 15-95c0-56 16-97 71-98 29-1 48 16 59 35 1-10 0-23 2-32h30zM94-22c36 0 50-32 50-73 0-42-14-75-50-75-39 0-46 34-46 75s6 73 46 73" id="ai"/><g id="c"><use transform="matrix(0.05,0,0,0.05,0,0)" xlink:href="#ae"/><use transform="matrix(0.05,0,0,0.05,9,0)" xlink:href="#af"/><use transform="matrix(0.05,0,0,0.05,14,0)" xlink:href="#aa"/><use transform="matrix(0.05,0,0,0.05,19.95,0)" xlink:href="#ag"/><use transform="matrix(0.05,0,0,0.05,23.9,0)" xlink:href="#ah"/><use transform="matrix(0.05,0,0,0.05,33.9,0)" xlink:href="#ai"/></g><path fill="#333" d="M85-194c31 0 48 13 60 33l-1-100h32l1 261h-30c-2-10 0-23-3-31C134-8 116 4 85 4 32 4 16-35 15-94c0-66 23-100 70-100zm9 24c-40 0-46 34-46 75 0 40 6 74 45 74 42 0 51-32 51-76 0-42-9-74-50-73" id="aj"/><path fill="#333" d="M108 0H70L1-190h34L89-25l56-165h34" id="ak"/><path fill="#333" d="M100-194c63 0 86 42 84 106H49c0 40 14 67 53 68 26 1 43-12 49-29l28 8c-11 28-37 45-77 45C44 4 14-33 15-96c1-61 26-98 85-98zm52 81c6-60-76-77-97-28-3 7-6 17-6 28h103" id="al"/><g id="d"><use transform="matrix(0.05,0,0,0.05,0,0)" xlink:href="#X"/><use transform="matrix(0.05,0,0,0.05,10.5,0)" xlink:href="#aj"/><use transform="matrix(0.05,0,0,0.05,20.5,0)" xlink:href="#aa"/><use transform="matrix(0.05,0,0,0.05,26.450000000000003,0)" xlink:href="#ag"/><use transform="matrix(0.05,0,0,0.05,30.399999999999995,0)" xlink:href="#ak"/><use transform="matrix(0.05,0,0,0.05,39.4,0)" xlink:href="#al"/><use transform="matrix(0.05,0,0,0.05,49.4,0)" xlink:href="#aa"/><use transform="matrix(0.05,0,0,0.05,55.35,0)" xlink:href="#ad"/></g><path fill="#333" d="M232-93c-1 65-40 97-104 97C67 4 28-28 28-90v-158h33c8 89-33 224 67 224 102 0 64-133 71-224h33v155" id="am"/><g id="e"><use transform="matrix(0.05,0,0,0.05,0,0)" xlink:href="#am"/><use transform="matrix(0.05,0,0,0.05,12.950000000000001,0)" xlink:href="#ae"/><use transform="matrix(0.05,0,0,0.05,21.950000000000003,0)" xlink:href="#al"/><use transform="matrix(0.05,0,0,0.05,31.950000000000003,0)" xlink:href="#aa"/></g><path fill="#333" d="M210-169c-67 3-38 105-44 169h-31v-121c0-29-5-50-35-48C34-165 62-65 56 0H25l-1-190h30c1 10-1 24 2 32 10-44 99-50 107 0 11-21 27-35 58-36 85-2 47 119 55 194h-31v-121c0-29-5-49-35-48" id="an"/><path fill="#333" d="M143 0L79-87 56-68V0H24v-261h32v163l83-92h37l-77 82L181 0h-38" id="ao"/><g id="f"><use transform="matrix(0.05,0,0,0.05,0,0)" xlink:href="#X"/><use transform="matrix(0.05,0,0,0.05,10.5,0)" xlink:href="#an"/><use transform="matrix(0.05,0,0,0.05,25.450000000000003,0)" xlink:href="#Z"/><use transform="matrix(0.05,0,0,0.05,35.45,0)" xlink:href="#ao"/><use transform="matrix(0.05,0,0,0.05,44.45,0)" xlink:href="#al"/><use transform="matrix(0.05,0,0,0.05,54.45,0)" xlink:href="#ad"/></g><path fill="#333" d="M100-194c62-1 85 37 85 99 1 63-27 99-86 99S16-35 15-95c0-66 28-99 85-99zM99-20c44 1 53-31 53-75 0-43-8-75-51-75s-53 32-53 75 10 74 51 75" id="ap"/><path fill="#333" d="M24 0v-261h32V0H24" id="aq"/><g id="g"><use transform="matrix(0.05,0,0,0.05,0,0)" xlink:href="#X"/><use transform="matrix(0.05,0,0,0.05,10.5,0)" xlink:href="#an"/><use transform="matrix(0.05,0,0,0.05,25.450000000000003,0)" xlink:href="#ap"/><use transform="matrix(0.05,0,0,0.05,35.45,0)" xlink:href="#aj"/><use transform="matrix(0.05,0,0,0.05,45.45,0)" xlink:href="#al"/><use transform="matrix(0.05,0,0,0.05,55.45,0)" xlink:href="#aq"/><use transform="matrix(0.05,0,0,0.05,59.400000000000006,0)" xlink:href="#ad"/></g><path fill="#333" d="M179-190L93 31C79 59 56 82 12 73V49c39 6 53-20 64-50L1-190h34L92-34l54-156h33" id="ar"/><g id="h"><use transform="matrix(0.05,0,0,0.05,0,0)" xlink:href="#X"/><use transform="matrix(0.05,0,0,0.05,10.5,0)" xlink:href="#ar"/><use transform="matrix(0.05,0,0,0.05,19.5,0)" xlink:href="#al"/><use transform="matrix(0.05,0,0,0.05,29.5,0)" xlink:href="#Z"/><use transform="matrix(0.05,0,0,0.05,39.5,0)" xlink:href="#aa"/><use transform="matrix(0.05,0,0,0.05,45.45,0)" xlink:href="#ad"/></g><g id="i"><use transform="matrix(0.05,0,0,0.05,0,0)" xlink:href="#ag"/><use transform="matrix(0.05,0,0,0.05,3.95,0)" xlink:href="#ah"/><use transform="matrix(0.05,0,0,0.05,13.949999999999998,0)" xlink:href="#af"/></g><path fill="#4c535d" d="M212-179c-10-28-35-45-73-45-59 0-87 40-87 99 0 60 29 101 89 101 43 0 62-24 78-52l27 14C228-24 195 4 139 4 59 4 22-46 18-125c-6-104 99-153 187-111 19 9 31 26 39 46" id="as"/><path fill="#4c535d" d="M24 0v-261h32V0H24" id="at"/><path fill="#4c535d" d="M141-36C126-15 110 5 73 4 37 3 15-17 15-53c-1-64 63-63 125-63 3-35-9-54-41-54-24 1-41 7-42 31l-33-3c5-37 33-52 76-52 45 0 72 20 72 64v82c-1 20 7 32 28 27v20c-31 9-61-2-59-35zM48-53c0 20 12 33 32 33 41-3 63-29 60-74-43 2-92-5-92 41" id="au"/><path fill="#4c535d" d="M135-143c-3-34-86-38-87 0 15 53 115 12 119 90S17 21 10-45l28-5c4 36 97 45 98 0-10-56-113-15-118-90-4-57 82-63 122-42 12 7 21 19 24 35" id="av"/><g id="j"><use transform="matrix(0.05185185185185186,0,0,0.05185185185185186,0,0)" xlink:href="#as"/><use transform="matrix(0.05185185185185186,0,0,0.05185185185185186,13.42962962962963,0)" xlink:href="#at"/><use transform="matrix(0.05185185185185186,0,0,0.05185185185185186,17.525925925925925,0)" xlink:href="#au"/><use transform="matrix(0.05185185185185186,0,0,0.05185185185185186,27.8962962962963,0)" xlink:href="#av"/><use transform="matrix(0.05185185185185186,0,0,0.05185185185185186,37.229629629629635,0)" xlink:href="#av"/></g><path fill="#4c535d" d="M30-248c118-7 216 8 213 122C240-48 200 0 122 0H30v-248zM63-27c89 8 146-16 146-99s-60-101-146-95v194" id="aw"/><path fill="#4c535d" d="M24-231v-30h32v30H24zM24 0v-190h32V0H24" id="ax"/><path fill="#4c535d" d="M177-190C167-65 218 103 67 71c-23-6-38-20-44-43l32-5c15 47 100 32 89-28v-30C133-14 115 1 83 1 29 1 15-40 15-95c0-56 16-97 71-98 29-1 48 16 59 35 1-10 0-23 2-32h30zM94-22c36 0 50-32 50-73 0-42-14-75-50-75-39 0-46 34-46 75s6 73 46 73" id="ay"/><path fill="#4c535d" d="M114-163C36-179 61-72 57 0H25l-1-190h30c1 12-1 29 2 39 6-27 23-49 58-41v29" id="az"/><path fill="#4c535d" d="M210-169c-67 3-38 105-44 169h-31v-121c0-29-5-50-35-48C34-165 62-65 56 0H25l-1-190h30c1 10-1 24 2 32 10-44 99-50 107 0 11-21 27-35 58-36 85-2 47 119 55 194h-31v-121c0-29-5-49-35-48" id="aA"/><g id="k"><use transform="matrix(0.05185185185185186,0,0,0.05185185185185186,0,0)" xlink:href="#aw"/><use transform="matrix(0.05185185185185186,0,0,0.05185185185185186,13.42962962962963,0)" xlink:href="#ax"/><use transform="matrix(0.05185185185185186,0,0,0.05185185185185186,17.525925925925925,0)" xlink:href="#au"/><use transform="matrix(0.05185185185185186,0,0,0.05185185185185186,27.8962962962963,0)" xlink:href="#ay"/><use transform="matrix(0.05185185185185186,0,0,0.05185185185185186,38.26666666666667,0)" xlink:href="#az"/><use transform="matrix(0.05185185185185186,0,0,0.05185185185185186,44.437037037037044,0)" xlink:href="#au"/><use transform="matrix(0.05185185185185186,0,0,0.05185185185185186,54.80740740740741,0)" xlink:href="#aA"/></g><path fill="#4c535d" d="M115-194c55 1 70 41 70 98S169 2 115 4C84 4 66-9 55-30l1 105H24l-1-265h31l2 30c10-21 28-34 59-34zm-8 174c40 0 45-34 45-75s-6-73-45-74c-42 0-51 32-51 76 0 43 10 73 51 73" id="aB"/><path fill="#4c535d" d="M100-194c62-1 85 37 85 99 1 63-27 99-86 99S16-35 15-95c0-66 28-99 85-99zM99-20c44 1 53-31 53-75 0-43-8-75-51-75s-53 32-53 75 10 74 51 75" id="aC"/><path fill="#4c535d" d="M117-194c89-4 53 116 60 194h-32v-121c0-31-8-49-39-48C34-167 62-67 57 0H25l-1-190h30c1 10-1 24 2 32 11-22 29-35 61-36" id="aD"/><g id="l"><use transform="matrix(0.05185185185185186,0,0,0.05185185185185186,0,0)" xlink:href="#as"/><use transform="matrix(0.05185185185185186,0,0,0.05185185185185186,13.42962962962963,0)" xlink:href="#au"/><use transform="matrix(0.05185185185185186,0,0,0.05185185185185186,23.800000000000004,0)" xlink:href="#az"/><use transform="matrix(0.05185185185185186,0,0,0.05185185185185186,29.970370370370375,0)" xlink:href="#aB"/><use transform="matrix(0.05185185185185186,0,0,0.05185185185185186,40.34074074074075,0)" xlink:href="#aC"/><use transform="matrix(0.05185185185185186,0,0,0.05185185185185186,50.71111111111112,0)" xlink:href="#aC"/><use transform="matrix(0.05185185185185186,0,0,0.05185185185185186,61.0814814814815,0)" xlink:href="#at"/><use transform="matrix(0.05185185185185186,0,0,0.05185185185185186,65.17777777777779,0)" xlink:href="#ax"/><use transform="matrix(0.05185185185185186,0,0,0.05185185185185186,69.2740740740741,0)" xlink:href="#aD"/><use transform="matrix(0.05185185185185186,0,0,0.05185185185185186,79.64444444444446,0)" xlink:href="#ay"/></g><path fill="#4c535d" d="M33 0v-248h34V0H33" id="aE"/><path fill="#4c535d" d="M115-194c53 0 69 39 70 98 0 66-23 100-70 100C84 3 66-7 56-30L54 0H23l1-261h32v101c10-23 28-34 59-34zm-8 174c40 0 45-34 45-75 0-40-5-75-45-74-42 0-51 32-51 76 0 43 10 73 51 73" id="aF"/><path fill="#4c535d" d="M106-169C34-169 62-67 57 0H25v-261h32l-1 103c12-21 28-36 61-36 89 0 53 116 60 194h-32v-121c2-32-8-49-39-48" id="aG"/><g id="m"><use transform="matrix(0.04248971193415638,0,0,0.04248971193415638,0,0)" xlink:href="#aE"/><use transform="matrix(0.04248971193415638,0,0,0.04248971193415638,4.248971193415637,0)" xlink:href="#aF"/><use transform="matrix(0.04248971193415638,0,0,0.04248971193415638,12.746913580246911,0)" xlink:href="#az"/><use transform="matrix(0.04248971193415638,0,0,0.04248971193415638,17.80318930041152,0)" xlink:href="#au"/><use transform="matrix(0.04248971193415638,0,0,0.04248971193415638,26.301131687242794,0)" xlink:href="#aG"/><use transform="matrix(0.04248971193415638,0,0,0.04248971193415638,34.79907407407407,0)" xlink:href="#ax"/><use transform="matrix(0.04248971193415638,0,0,0.04248971193415638,38.15576131687242,0)" xlink:href="#aA"/></g><path fill="#4c535d" d="M143 4C61 4 22-44 18-125c-5-107 100-154 193-111 17 8 29 25 37 43l-32 9c-13-25-37-40-76-40-61 0-88 39-88 99 0 61 29 100 91 101 35 0 62-11 79-27v-45h-74v-28h105v86C228-13 192 4 143 4" id="aH"/><g id="n"><use transform="matrix(0.04248971193415638,0,0,0.04248971193415638,0,0)" xlink:href="#aH"/><use transform="matrix(0.04248971193415638,0,0,0.04248971193415638,11.897119341563785,0)" xlink:href="#au"/><use transform="matrix(0.04248971193415638,0,0,0.04248971193415638,20.39506172839506,0)" xlink:href="#aA"/><use transform="matrix(0.04248971193415638,0,0,0.04248971193415638,33.099485596707815,0)" xlink:href="#au"/><use transform="matrix(0.04248971193415638,0,0,0.04248971193415638,41.59742798353909,0)" xlink:href="#at"/></g><path fill="#333" d="M238-95c0 69-44 99-111 99C63 4 22-25 22-93v-155h51v151c-1 38 19 59 55 60 90 1 49-130 58-211h52v153" id="aI"/><path fill="#333" d="M137-138c1-29-70-34-71-4 15 46 118 7 119 86 1 83-164 76-172 9l43-7c4 19 20 25 44 25 33 8 57-30 24-41C81-84 22-81 20-136c-2-80 154-74 161-7" id="aJ"/><path fill="#333" d="M185-48c-13 30-37 53-82 52C43 2 14-33 14-96s30-98 90-98c62 0 83 45 84 108H66c0 31 8 55 39 56 18 0 30-7 34-22zm-45-69c5-46-57-63-70-21-2 6-4 13-4 21h74" id="aK"/><g id="o"><use transform="matrix(0.05,0,0,0.05,0,0)" xlink:href="#aI"/><use transform="matrix(0.05,0,0,0.05,12.950000000000001,0)" xlink:href="#aJ"/><use transform="matrix(0.05,0,0,0.05,22.950000000000003,0)" xlink:href="#aK"/><use transform="matrix(0.05,0,0,0.05,32.95,0)" xlink:href="#W"/></g><use transform="matrix(0.05,0,0,0.05,0,0)" xlink:href="#X" id="p"/><g id="q"><use transform="matrix(0.05,0,0,0.05,0,0)" xlink:href="#ah"/><use transform="matrix(0.05,0,0,0.05,10,0)" xlink:href="#Z"/><use transform="matrix(0.05,0,0,0.05,20,0)" xlink:href="#an"/><use transform="matrix(0.05,0,0,0.05,34.95,0)" xlink:href="#al"/><use transform="matrix(0.05,0,0,0.05,44.95,0)" xlink:href="#ad"/></g><path fill="#333" d="M16-82v-28h88v28H16" id="aL"/><use transform="matrix(0.05,0,0,0.05,0,0)" xlink:href="#aL" id="r"/><g id="s"><use transform="matrix(0.05,0,0,0.05,0,0)" xlink:href="#al"/><use transform="matrix(0.05,0,0,0.05,10,0)" xlink:href="#an"/><use transform="matrix(0.05,0,0,0.05,24.950000000000003,0)" xlink:href="#Z"/><use transform="matrix(0.05,0,0,0.05,34.95,0)" xlink:href="#ag"/><use transform="matrix(0.05,0,0,0.05,38.900000000000006,0)" xlink:href="#aq"/><use transform="matrix(0.05,0,0,0.05,42.85000000000001,0)" xlink:href="#ad"/></g><path fill="#333" d="M115-194c55 1 70 41 70 98S169 2 115 4C84 4 66-9 55-30l1 105H24l-1-265h31l2 30c10-21 28-34 59-34zm-8 174c40 0 45-34 45-75s-6-73-45-74c-42 0-51 32-51 76 0 43 10 73 51 73" id="aM"/><path fill="#333" d="M206 0h-36l-40-164L89 0H53L-1-190h32L70-26l43-164h34l41 164 42-164h31" id="aN"/><g id="t"><use transform="matrix(0.05,0,0,0.05,0,0)" xlink:href="#aM"/><use transform="matrix(0.05,0,0,0.05,10,0)" xlink:href="#Z"/><use transform="matrix(0.05,0,0,0.05,20,0)" xlink:href="#ae"/><use transform="matrix(0.05,0,0,0.05,29,0)" xlink:href="#ae"/><use transform="matrix(0.05,0,0,0.05,38,0)" xlink:href="#aN"/><use transform="matrix(0.05,0,0,0.05,50.95,0)" xlink:href="#ap"/><use transform="matrix(0.05,0,0,0.05,60.95,0)" xlink:href="#aa"/><use transform="matrix(0.05,0,0,0.05,66.9,0)" xlink:href="#aj"/><use transform="matrix(0.05,0,0,0.05,76.9,0)" xlink:href="#ad"/></g><path fill="#333" d="M101-234c-31-9-42 10-38 44h38v23H63V0H32v-167H5v-23h27c-7-52 17-82 69-68v24" id="aO"/><path fill="#333" d="M84 4C-5 8 30-112 23-190h32v120c0 31 7 50 39 49 72-2 45-101 50-169h31l1 190h-30c-1-10 1-25-2-33-11 22-28 36-60 37" id="aP"/><path fill="#333" d="M140-251c81 0 123 46 123 126C263-46 219 4 140 4 59 4 17-45 17-125s42-126 123-126zm0 227c63 0 89-41 89-101s-29-99-89-99c-61 0-89 39-89 99S79-25 140-24" id="aQ"/><g id="u"><use transform="matrix(0.05,0,0,0.05,0,0)" xlink:href="#aj"/><use transform="matrix(0.05,0,0,0.05,10,0)" xlink:href="#al"/><use transform="matrix(0.05,0,0,0.05,20,0)" xlink:href="#aO"/><use transform="matrix(0.05,0,0,0.05,25,0)" xlink:href="#Z"/><use transform="matrix(0.05,0,0,0.05,35,0)" xlink:href="#aP"/><use transform="matrix(0.05,0,0,0.05,45,0)" xlink:href="#aq"/><use transform="matrix(0.05,0,0,0.05,48.95,0)" xlink:href="#af"/><use transform="matrix(0.05,0,0,0.05,53.95,0)" xlink:href="#ac"/><use transform="matrix(0.05,0,0,0.05,66.9,0)" xlink:href="#aa"/><use transform="matrix(0.05,0,0,0.05,72.85000000000001,0)" xlink:href="#ap"/><use transform="matrix(0.05,0,0,0.05,82.85000000000001,0)" xlink:href="#aM"/><use transform="matrix(0.05,0,0,0.05,92.85000000000001,0)" xlink:href="#aQ"/><use transform="matrix(0.05,0,0,0.05,106.85000000000001,0)" xlink:href="#aO"/><use transform="matrix(0.05,0,0,0.05,111.5,0)" xlink:href="#aO"/><use transform="matrix(0.05,0,0,0.05,116.5,0)" xlink:href="#ad"/></g><path fill="#333" d="M127-220V0H93v-220H8v-28h204v28h-85" id="aR"/><g id="v"><use transform="matrix(0.05,0,0,0.05,0,0)" xlink:href="#aP"/><use transform="matrix(0.05,0,0,0.05,10,0)" xlink:href="#ae"/><use transform="matrix(0.05,0,0,0.05,19,0)" xlink:href="#al"/><use transform="matrix(0.05,0,0,0.05,29,0)" xlink:href="#aa"/><use transform="matrix(0.05,0,0,0.05,34.95,0)" xlink:href="#aR"/><use transform="matrix(0.05,0,0,0.05,44.900000000000006,0)" xlink:href="#ar"/><use transform="matrix(0.05,0,0,0.05,53.900000000000006,0)" xlink:href="#aM"/><use transform="matrix(0.05,0,0,0.05,63.900000000000006,0)" xlink:href="#al"/><use transform="matrix(0.05,0,0,0.05,73.9,0)" xlink:href="#ad"/></g><path fill="#333" d="M115-194c53 0 69 39 70 98 0 66-23 100-70 100C84 3 66-7 56-30L54 0H23l1-261h32v101c10-23 28-34 59-34zm-8 174c40 0 45-34 45-75 0-40-5-75-45-74-42 0-51 32-51 76 0 43 10 73 51 73" id="aS"/><g id="w"><use transform="matrix(0.05,0,0,0.05,0,0)" xlink:href="#aS"/><use transform="matrix(0.05,0,0,0.05,10,0)" xlink:href="#ap"/><use transform="matrix(0.05,0,0,0.05,20,0)" xlink:href="#ap"/><use transform="matrix(0.05,0,0,0.05,30,0)" xlink:href="#aq"/></g><path fill="#333" d="M185-189c-5-48-123-54-124 2 14 75 158 14 163 119 3 78-121 87-175 55-17-10-28-26-33-46l33-7c5 56 141 63 141-1 0-78-155-14-162-118-5-82 145-84 179-34 5 7 8 16 11 25" id="aT"/><path fill="#333" d="M233-177c-1 41-23 64-60 70L243 0h-38l-65-103H63V0H30v-248c88 3 205-21 203 71zM63-129c60-2 137 13 137-47 0-61-80-42-137-45v92" id="aU"/><path fill="#333" d="M87 75C49 33 22-17 22-94c0-76 28-126 65-167h31c-38 41-64 92-64 168S80 34 118 75H87" id="aV"/><path fill="#333" d="M68-38c1 34 0 65-14 84H32c9-13 17-26 17-46H33v-38h35" id="aW"/><g id="x"><use transform="matrix(0.05,0,0,0.05,0,0)" xlink:href="#aT"/><use transform="matrix(0.05,0,0,0.05,12,0)" xlink:href="#af"/><use transform="matrix(0.05,0,0,0.05,17,0)" xlink:href="#Z"/><use transform="matrix(0.05,0,0,0.05,27,0)" xlink:href="#aa"/><use transform="matrix(0.05,0,0,0.05,32.95,0)" xlink:href="#af"/><use transform="matrix(0.05,0,0,0.05,37.95,0)" xlink:href="#aU"/><use transform="matrix(0.05,0,0,0.05,50.900000000000006,0)" xlink:href="#ag"/><use transform="matrix(0.05,0,0,0.05,54.85,0)" xlink:href="#aj"/><use transform="matrix(0.05,0,0,0.05,64.85000000000001,0)" xlink:href="#al"/><use transform="matrix(0.05,0,0,0.05,74.85000000000001,0)" xlink:href="#aV"/><use transform="matrix(0.05,0,0,0.05,80.80000000000001,0)" xlink:href="#ae"/><use transform="matrix(0.05,0,0,0.05,89.80000000000001,0)" xlink:href="#af"/><use transform="matrix(0.05,0,0,0.05,94.80000000000001,0)" xlink:href="#Z"/><use transform="matrix(0.05,0,0,0.05,104.80000000000001,0)" xlink:href="#aa"/><use transform="matrix(0.05,0,0,0.05,110.75,0)" xlink:href="#af"/><use transform="matrix(0.05,0,0,0.05,115.75,0)" xlink:href="#aW"/></g><g id="y"><use transform="matrix(0.05,0,0,0.05,0,0)" xlink:href="#aj"/><use transform="matrix(0.05,0,0,0.05,10,0)" xlink:href="#al"/><use transform="matrix(0.05,0,0,0.05,20,0)" xlink:href="#ae"/><use transform="matrix(0.05,0,0,0.05,29,0)" xlink:href="#af"/><use transform="matrix(0.05,0,0,0.05,34,0)" xlink:href="#ag"/><use transform="matrix(0.05,0,0,0.05,37.95,0)" xlink:href="#ah"/><use transform="matrix(0.05,0,0,0.05,47.95,0)" xlink:href="#Z"/><use transform="matrix(0.05,0,0,0.05,57.95,0)" xlink:href="#af"/><use transform="matrix(0.05,0,0,0.05,62.95,0)" xlink:href="#ag"/><use transform="matrix(0.05,0,0,0.05,66.9,0)" xlink:href="#ap"/><use transform="matrix(0.05,0,0,0.05,76.9,0)" xlink:href="#ah"/><use transform="matrix(0.05,0,0,0.05,86.9,0)" xlink:href="#aW"/></g><path fill="#333" d="M109-170H84l-4-78h32zm-65 0H19l-4-78h33" id="aX"/><path fill="#333" d="M33-261c38 41 65 92 65 168S71 34 33 75H2C39 34 66-17 66-93S39-220 2-261h31" id="aY"/><g id="z"><use transform="matrix(0.05,0,0,0.05,0,0)" xlink:href="#aP"/><use transform="matrix(0.05,0,0,0.05,10,0)" xlink:href="#ae"/><use transform="matrix(0.05,0,0,0.05,19,0)" xlink:href="#al"/><use transform="matrix(0.05,0,0,0.05,29,0)" xlink:href="#aa"/><use transform="matrix(0.05,0,0,0.05,34.95,0)" xlink:href="#aR"/><use transform="matrix(0.05,0,0,0.05,44.900000000000006,0)" xlink:href="#ar"/><use transform="matrix(0.05,0,0,0.05,53.900000000000006,0)" xlink:href="#aM"/><use transform="matrix(0.05,0,0,0.05,63.900000000000006,0)" xlink:href="#al"/><use transform="matrix(0.05,0,0,0.05,73.9,0)" xlink:href="#aX"/><use transform="matrix(0.05,0,0,0.05,80.25,0)" xlink:href="#ac"/><use transform="matrix(0.05,0,0,0.05,93.2,0)" xlink:href="#al"/><use transform="matrix(0.05,0,0,0.05,103.2,0)" xlink:href="#aO"/><use transform="matrix(0.05,0,0,0.05,108.2,0)" xlink:href="#Z"/><use transform="matrix(0.05,0,0,0.05,118.2,0)" xlink:href="#aP"/><use transform="matrix(0.05,0,0,0.05,128.2,0)" xlink:href="#aq"/><use transform="matrix(0.05,0,0,0.05,132.14999999999998,0)" xlink:href="#af"/><use transform="matrix(0.05,0,0,0.05,137.14999999999998,0)" xlink:href="#aX"/><use transform="matrix(0.05,0,0,0.05,143.49999999999997,0)" xlink:href="#aY"/></g><path fill="#333" d="M240-174c0 40-23 61-54 70L253 0h-59l-57-94H76V0H24v-248c93 4 217-23 216 74zM76-134c48-2 112 12 112-38 0-48-66-32-112-35v73" id="aZ"/><path fill="#333" d="M25-224v-37h50v37H25zM25 0v-190h50V0H25" id="ba"/><path fill="#333" d="M88-194c31-1 46 15 58 34l-1-101h50l1 261h-48c-2-10 0-23-3-31C134-8 116 4 84 4 32 4 16-41 15-95c0-56 19-97 73-99zm17 164c33 0 40-30 41-66 1-37-9-64-41-64s-38 30-39 65c0 43 13 65 39 65" id="bb"/><g id="A"><use transform="matrix(0.05,0,0,0.05,0,0)" xlink:href="#aZ"/><use transform="matrix(0.05,0,0,0.05,12.950000000000001,0)" xlink:href="#ba"/><use transform="matrix(0.05,0,0,0.05,17.950000000000003,0)" xlink:href="#bb"/><use transform="matrix(0.05,0,0,0.05,28.900000000000006,0)" xlink:href="#aK"/></g><g id="B"><use transform="matrix(0.05,0,0,0.05,0,0)" xlink:href="#X"/><use transform="matrix(0.05,0,0,0.05,10.5,0)" xlink:href="#aa"/><use transform="matrix(0.05,0,0,0.05,16.45,0)" xlink:href="#ag"/><use transform="matrix(0.05,0,0,0.05,20.4,0)" xlink:href="#aj"/><use transform="matrix(0.05,0,0,0.05,30.399999999999995,0)" xlink:href="#al"/><use transform="matrix(0.05,0,0,0.05,40.4,0)" xlink:href="#ab"/><use transform="matrix(0.05,0,0,0.05,45.4,0)" xlink:href="#ac"/><use transform="matrix(0.05,0,0,0.05,58.35,0)" xlink:href="#ad"/></g><g id="C"><use transform="matrix(0.05,0,0,0.05,0,0)" xlink:href="#ae"/><use transform="matrix(0.05,0,0,0.05,9,0)" xlink:href="#af"/><use transform="matrix(0.05,0,0,0.05,14,0)" xlink:href="#aa"/><use transform="matrix(0.05,0,0,0.05,19.95,0)" xlink:href="#ag"/><use transform="matrix(0.05,0,0,0.05,23.9,0)" xlink:href="#ah"/><use transform="matrix(0.05,0,0,0.05,33.9,0)" xlink:href="#ai"/></g><g id="D"><use transform="matrix(0.05,0,0,0.05,0,0)" xlink:href="#X"/><use transform="matrix(0.05,0,0,0.05,10.5,0)" xlink:href="#aj"/><use transform="matrix(0.05,0,0,0.05,20.5,0)" xlink:href="#aa"/><use transform="matrix(0.05,0,0,0.05,26.450000000000003,0)" xlink:href="#ag"/><use transform="matrix(0.05,0,0,0.05,30.399999999999995,0)" xlink:href="#ak"/><use transform="matrix(0.05,0,0,0.05,39.4,0)" xlink:href="#al"/><use transform="matrix(0.05,0,0,0.05,49.4,0)" xlink:href="#aa"/><use transform="matrix(0.05,0,0,0.05,55.35,0)" xlink:href="#ad"/></g><g id="E"><use transform="matrix(0.05,0,0,0.05,0,0)" xlink:href="#am"/><use transform="matrix(0.05,0,0,0.05,12.950000000000001,0)" xlink:href="#ae"/><use transform="matrix(0.05,0,0,0.05,21.950000000000003,0)" xlink:href="#al"/><use transform="matrix(0.05,0,0,0.05,31.950000000000003,0)" xlink:href="#aa"/></g><g id="F"><use transform="matrix(0.05,0,0,0.05,0,0)" xlink:href="#X"/><use transform="matrix(0.05,0,0,0.05,10.5,0)" xlink:href="#aj"/><use transform="matrix(0.05,0,0,0.05,20.5,0)" xlink:href="#Z"/><use transform="matrix(0.05,0,0,0.05,30.5,0)" xlink:href="#af"/><use transform="matrix(0.05,0,0,0.05,35.5,0)" xlink:href="#al"/><use transform="matrix(0.05,0,0,0.05,45.5,0)" xlink:href="#ad"/></g><g id="G"><use transform="matrix(0.05,0,0,0.05,0,0)" xlink:href="#ac"/><use transform="matrix(0.05,0,0,0.05,12.950000000000001,0)" xlink:href="#Z"/><use transform="matrix(0.05,0,0,0.05,22.950000000000003,0)" xlink:href="#af"/><use transform="matrix(0.05,0,0,0.05,27.950000000000003,0)" xlink:href="#al"/></g><g id="H"><use transform="matrix(0.05,0,0,0.05,0,0)" xlink:href="#X"/><use transform="matrix(0.05,0,0,0.05,10.5,0)" xlink:href="#af"/><use transform="matrix(0.05,0,0,0.05,15.5,0)" xlink:href="#ag"/><use transform="matrix(0.05,0,0,0.05,19.45,0)" xlink:href="#an"/><use transform="matrix(0.05,0,0,0.05,34.4,0)" xlink:href="#al"/><use transform="matrix(0.05,0,0,0.05,44.4,0)" xlink:href="#ad"/></g><g id="I"><use transform="matrix(0.05,0,0,0.05,0,0)" xlink:href="#aR"/><use transform="matrix(0.05,0,0,0.05,10.3,0)" xlink:href="#ag"/><use transform="matrix(0.05,0,0,0.05,14.25,0)" xlink:href="#an"/><use transform="matrix(0.05,0,0,0.05,29.200000000000003,0)" xlink:href="#al"/></g><path fill="#333" d="M30 0v-248h33v221h125V0H30" id="bc"/><g id="J"><use transform="matrix(0.05,0,0,0.05,0,0)" xlink:href="#X"/><use transform="matrix(0.05,0,0,0.05,10.5,0)" xlink:href="#aM"/><use transform="matrix(0.05,0,0,0.05,20.5,0)" xlink:href="#ag"/><use transform="matrix(0.05,0,0,0.05,24.45,0)" xlink:href="#Y"/><use transform="matrix(0.05,0,0,0.05,33.45,0)" xlink:href="#ao"/><use transform="matrix(0.05,0,0,0.05,42.45,0)" xlink:href="#aP"/><use transform="matrix(0.05,0,0,0.05,52.45,0)" xlink:href="#aM"/><use transform="matrix(0.05,0,0,0.05,62.45,0)" xlink:href="#bc"/><use transform="matrix(0.05,0,0,0.05,72.45,0)" xlink:href="#ap"/><use transform="matrix(0.05,0,0,0.05,82.45,0)" xlink:href="#Y"/><use transform="matrix(0.05,0,0,0.05,91.45,0)" xlink:href="#Z"/><use transform="matrix(0.05,0,0,0.05,101.45,0)" xlink:href="#af"/><use transform="matrix(0.05,0,0,0.05,106.45,0)" xlink:href="#ag"/><use transform="matrix(0.05,0,0,0.05,110.4,0)" xlink:href="#ap"/><use transform="matrix(0.05,0,0,0.05,120.4,0)" xlink:href="#ah"/><use transform="matrix(0.05,0,0,0.05,130.4,0)" xlink:href="#ad"/></g><g id="K"><use transform="matrix(0.05,0,0,0.05,0,0)" xlink:href="#X"/><use transform="matrix(0.05,0,0,0.05,10.5,0)" xlink:href="#Z"/><use transform="matrix(0.05,0,0,0.05,20.5,0)" xlink:href="#ak"/><use transform="matrix(0.05,0,0,0.05,29.5,0)" xlink:href="#Z"/><use transform="matrix(0.05,0,0,0.05,39.5,0)" xlink:href="#ag"/><use transform="matrix(0.05,0,0,0.05,43.45,0)" xlink:href="#aq"/><use transform="matrix(0.05,0,0,0.05,47.400000000000006,0)" xlink:href="#Z"/><use transform="matrix(0.05,0,0,0.05,57.400000000000006,0)" xlink:href="#aS"/><use transform="matrix(0.05,0,0,0.05,67.4,0)" xlink:href="#aq"/><use transform="matrix(0.05,0,0,0.05,71.35000000000001,0)" xlink:href="#al"/><use transform="matrix(0.05,0,0,0.05,81.35000000000001,0)" xlink:href="#aT"/><use transform="matrix(0.05,0,0,0.05,93.35000000000001,0)" xlink:href="#al"/><use transform="matrix(0.05,0,0,0.05,103.35000000000001,0)" xlink:href="#Z"/><use transform="matrix(0.05,0,0,0.05,113.35000000000001,0)" xlink:href="#af"/><use transform="matrix(0.05,0,0,0.05,118.35000000000001,0)" xlink:href="#ae"/><use transform="matrix(0.05,0,0,0.05,127.35000000000001,0)" xlink:href="#ad"/></g><g id="L"><use transform="matrix(0.05,0,0,0.05,0,0)" xlink:href="#ag"/><use transform="matrix(0.05,0,0,0.05,3.95,0)" xlink:href="#ah"/><use transform="matrix(0.05,0,0,0.05,13.949999999999998,0)" xlink:href="#af"/></g><g id="M"><use transform="matrix(0.05,0,0,0.05,0,0)" xlink:href="#X"/><use transform="matrix(0.05,0,0,0.05,10.5,0)" xlink:href="#aM"/><use transform="matrix(0.05,0,0,0.05,20.5,0)" xlink:href="#Z"/><use transform="matrix(0.05,0,0,0.05,30.5,0)" xlink:href="#ae"/><use transform="matrix(0.05,0,0,0.05,39.5,0)" xlink:href="#ae"/><use transform="matrix(0.05,0,0,0.05,48.5,0)" xlink:href="#al"/><use transform="matrix(0.05,0,0,0.05,58.5,0)" xlink:href="#ah"/><use transform="matrix(0.05,0,0,0.05,68.5,0)" xlink:href="#ai"/><use transform="matrix(0.05,0,0,0.05,78.5,0)" xlink:href="#al"/><use transform="matrix(0.05,0,0,0.05,88.5,0)" xlink:href="#aa"/><use transform="matrix(0.05,0,0,0.05,94.45,0)" xlink:href="#ae"/><use transform="matrix(0.05,0,0,0.05,103.45,0)" xlink:href="#ad"/></g><path fill="#333" d="M26 75v-336h71v23H56V52h41v23H26" id="bd"/><g id="N"><use transform="matrix(0.05,0,0,0.05,0,0)" xlink:href="#am"/><use transform="matrix(0.05,0,0,0.05,12.950000000000001,0)" xlink:href="#ae"/><use transform="matrix(0.05,0,0,0.05,21.950000000000003,0)" xlink:href="#al"/><use transform="matrix(0.05,0,0,0.05,31.950000000000003,0)" xlink:href="#aa"/><use transform="matrix(0.05,0,0,0.05,37.900000000000006,0)" xlink:href="#bd"/></g><path fill="#333" d="M3 75V52h41v-290H3v-23h71V75H3" id="be"/><use transform="matrix(0.05,0,0,0.05,0,0)" xlink:href="#be" id="O"/><path fill="#333" d="M30-248c87 1 191-15 191 75 0 78-77 80-158 76V0H30v-248zm33 125c57 0 124 11 124-50 0-59-68-47-124-48v98" id="bf"/><g id="P"><use transform="matrix(0.05,0,0,0.05,0,0)" xlink:href="#X"/><use transform="matrix(0.05,0,0,0.05,10.5,0)" xlink:href="#Z"/><use transform="matrix(0.05,0,0,0.05,20.5,0)" xlink:href="#aj"/><use transform="matrix(0.05,0,0,0.05,30.5,0)" xlink:href="#aj"/><use transform="matrix(0.05,0,0,0.05,40.5,0)" xlink:href="#bf"/><use transform="matrix(0.05,0,0,0.05,52.5,0)" xlink:href="#Z"/><use transform="matrix(0.05,0,0,0.05,62.5,0)" xlink:href="#ae"/><use transform="matrix(0.05,0,0,0.05,71.5,0)" xlink:href="#ae"/><use transform="matrix(0.05,0,0,0.05,80.5,0)" xlink:href="#al"/><use transform="matrix(0.05,0,0,0.05,90.5,0)" xlink:href="#ah"/><use transform="matrix(0.05,0,0,0.05,100.5,0)" xlink:href="#ai"/><use transform="matrix(0.05,0,0,0.05,110.5,0)" xlink:href="#al"/><use transform="matrix(0.05,0,0,0.05,120.5,0)" xlink:href="#aa"/><use transform="matrix(0.05,0,0,0.05,126.45,0)" xlink:href="#aV"/><use transform="matrix(0.05,0,0,0.05,132.4,0)" xlink:href="#aP"/><use transform="matrix(0.05,0,0,0.05,142.4,0)" xlink:href="#ae"/><use transform="matrix(0.05,0,0,0.05,151.4,0)" xlink:href="#al"/><use transform="matrix(0.05,0,0,0.05,161.4,0)" xlink:href="#aa"/><use transform="matrix(0.05,0,0,0.05,167.35,0)" xlink:href="#ad"/></g><g id="Q"><use transform="matrix(0.05,0,0,0.05,0,0)" xlink:href="#am"/><use transform="matrix(0.05,0,0,0.05,12.950000000000001,0)" xlink:href="#ae"/><use transform="matrix(0.05,0,0,0.05,21.950000000000003,0)" xlink:href="#al"/><use transform="matrix(0.05,0,0,0.05,31.950000000000003,0)" xlink:href="#aa"/><use transform="matrix(0.05,0,0,0.05,37.900000000000006,0)" xlink:href="#aY"/><use transform="matrix(0.05,0,0,0.05,43.85000000000001,0)" xlink:href="#ad"/></g><g id="R"><use transform="matrix(0.05,0,0,0.05,0,0)" xlink:href="#aS"/><use transform="matrix(0.05,0,0,0.05,10,0)" xlink:href="#ap"/><use transform="matrix(0.05,0,0,0.05,20,0)" xlink:href="#ap"/><use transform="matrix(0.05,0,0,0.05,30,0)" xlink:href="#aq"/><use transform="matrix(0.05,0,0,0.05,33.95,0)" xlink:href="#al"/><use transform="matrix(0.05,0,0,0.05,43.95,0)" xlink:href="#Z"/><use transform="matrix(0.05,0,0,0.05,53.95,0)" xlink:href="#ah"/></g><g id="S"><use transform="matrix(0.05,0,0,0.05,0,0)" xlink:href="#X"/><use transform="matrix(0.05,0,0,0.05,10.5,0)" xlink:href="#aa"/><use transform="matrix(0.05,0,0,0.05,16.45,0)" xlink:href="#al"/><use transform="matrix(0.05,0,0,0.05,26.450000000000003,0)" xlink:href="#an"/><use transform="matrix(0.05,0,0,0.05,41.4,0)" xlink:href="#ap"/><use transform="matrix(0.05,0,0,0.05,51.400000000000006,0)" xlink:href="#ak"/><use transform="matrix(0.05,0,0,0.05,60.400000000000006,0)" xlink:href="#al"/><use transform="matrix(0.05,0,0,0.05,70.4,0)" xlink:href="#bf"/><use transform="matrix(0.05,0,0,0.05,82.4,0)" xlink:href="#Z"/><use transform="matrix(0.05,0,0,0.05,92.4,0)" xlink:href="#ae"/><use transform="matrix(0.05,0,0,0.05,101.4,0)" xlink:href="#ae"/><use transform="matrix(0.05,0,0,0.05,110.4,0)" xlink:href="#al"/><use transform="matrix(0.05,0,0,0.05,120.4,0)" xlink:href="#ah"/><use transform="matrix(0.05,0,0,0.05,130.4,0)" xlink:href="#ai"/><use transform="matrix(0.05,0,0,0.05,140.4,0)" xlink:href="#al"/><use transform="matrix(0.05,0,0,0.05,150.4,0)" xlink:href="#aa"/><use transform="matrix(0.05,0,0,0.05,156.35,0)" xlink:href="#aV"/><use transform="matrix(0.05,0,0,0.05,162.29999999999998,0)" xlink:href="#aP"/><use transform="matrix(0.05,0,0,0.05,172.29999999999998,0)" xlink:href="#ae"/><use transform="matrix(0.05,0,0,0.05,181.29999999999998,0)" xlink:href="#al"/><use transform="matrix(0.05,0,0,0.05,191.29999999999998,0)" xlink:href="#aa"/><use transform="matrix(0.05,0,0,0.05,197.24999999999997,0)" xlink:href="#ad"/></g><g id="T"><use transform="matrix(0.05,0,0,0.05,0,0)" xlink:href="#aS"/><use transform="matrix(0.05,0,0,0.05,10,0)" xlink:href="#ap"/><use transform="matrix(0.05,0,0,0.05,20,0)" xlink:href="#ap"/><use transform="matrix(0.05,0,0,0.05,30,0)" xlink:href="#aq"/><use transform="matrix(0.05,0,0,0.05,33.95,0)" xlink:href="#al"/><use transform="matrix(0.05,0,0,0.05,43.95,0)" xlink:href="#Z"/><use transform="matrix(0.05,0,0,0.05,53.95,0)" xlink:href="#ah"/></g></defs></g></svg>